<?xml version="1.0" encoding="utf-8"?>
<!-- Generator: Adobe Illustrator 18.1.1, SVG Export Plug-In . SVG Version: 6.00 Build 0)  -->
<svg version="1.1" id="Layer_1" xmlns="http://www.w3.org/2000/svg" xmlns:xlink="http://www.w3.org/1999/xlink" x="0px" y="0px"
	 viewBox="0 0 100 100" enable-background="new 0 0 100 100" xml:space="preserve">
<path d="M203.1-173.5l-16.6-2.4l-7.4-15l-7.4,15l-16.6,2.4l12,11.7l-2.8,16.5l14.9-7.8l14.9,7.8l-2.8-16.5L203.1-173.5z M192-148
	l-12.8-6.8l-12.8,6.8l2.5-14.3l-10.4-10.1l14.4-2.1l6.4-13l6.4,13l14.4,2.1l-10.4,10.1L192-148z"/>
<g>
	<path d="M21.1,97.6c-0.9,0-1.8-0.4-2.4-1.1c-0.6-0.7-0.8-1.6-0.7-2.5L23.2,64c0.1-0.4-0.1-0.7-0.3-1L1.1,41.8
		c-0.9-0.8-1.2-2.1-0.8-3.2c0.4-1.1,1.3-2,2.5-2.1L32.9,32c0.4-0.1,0.7-0.3,0.9-0.6L47.2,4.2c0.5-1.1,1.6-1.7,2.8-1.7
		c1.2,0,2.3,0.7,2.8,1.7l13.4,27.2c0.2,0.3,0.5,0.6,0.9,0.6l30.1,4.4c1.2,0.2,2.2,1,2.5,2.1c0.4,1.1,0.1,2.4-0.8,3.2L77.2,63
		c-0.3,0.3-0.4,0.6-0.3,1L82,93.9c0.2,0.9-0.1,1.8-0.7,2.5c-0.6,0.7-1.5,1.1-2.4,1.1l0,0c-0.5,0-1-0.1-1.5-0.4L50.5,83.1
		c-0.3-0.2-0.7-0.2-1.1,0L22.6,97.2C22.1,97.4,21.6,97.6,21.1,97.6z M50,4.4c-0.4,0-0.8,0.2-1,0.6L35.5,32.3
		c-0.5,0.9-1.3,1.6-2.4,1.7L3.1,38.4c-0.4,0.1-0.8,0.4-0.9,0.8c-0.1,0.4,0,0.9,0.3,1.2l21.8,21.2c0.7,0.7,1.1,1.8,0.9,2.8L20,94.2
		c-0.1,0.4,0.1,0.7,0.2,0.9c0.3,0.4,0.9,0.5,1.4,0.3l26.9-14.1c0.9-0.5,2-0.5,2.9,0l26.9,14.1c0.5,0.3,1.1,0.1,1.4-0.3
		c0.2-0.2,0.3-0.5,0.2-0.9l-5.1-29.9c-0.2-1,0.2-2.1,0.9-2.8l21.8-21.2c0.3-0.3,0.4-0.7,0.3-1.2c-0.1-0.4-0.5-0.7-0.9-0.8L66.8,34
		c-1-0.1-1.9-0.8-2.4-1.7L51,5.1C50.8,4.7,50.4,4.4,50,4.4z"/>
</g>
<path fill="none" stroke="#000000" stroke-width="2" stroke-miterlimit="10" d="M-24.1,37.4L-54.2,33c-0.7-0.1-1.3-0.5-1.6-1.2
	L-69.2,4.6c-0.8-1.6-3-1.6-3.8,0l-13.4,27.2c-0.3,0.6-0.9,1.1-1.6,1.2l-30.1,4.4c-1.8,0.3-2.4,2.4-1.2,3.6l21.8,21.2
	c0.5,0.5,0.7,1.2,0.6,1.9l-5.1,29.9c-0.3,1.7,1.5,3.1,3.1,2.3l26.9-14.1c0.6-0.3,1.4-0.3,2,0l26.9,14.1c1.6,0.8,3.4-0.5,3.1-2.3
	l-5.1-29.9c-0.1-0.7,0.1-1.4,0.6-1.9L-22.9,41C-21.7,39.8-22.4,37.6-24.1,37.4z"/>
</svg>
