<?xml version="1.0" encoding="utf-8"?>
<!-- Generator: Adobe Illustrator 18.1.1, SVG Export Plug-In . SVG Version: 6.00 Build 0)  -->
<svg version="1.1" id="Layer_1" xmlns="http://www.w3.org/2000/svg" xmlns:xlink="http://www.w3.org/1999/xlink" x="0px" y="0px"
	 viewBox="0 0 600 310" enable-background="new 0 0 600 310" xml:space="preserve">
<g>
	<g>
		<g>
			<path fill="#FFEC9C" d="M520.7,103.1c-0.8,0-1.7-0.1-2.5-0.4c-0.5-0.1-0.7-0.6-0.7-1c0-0.5,0.4-0.8,0.9-0.9
				c2.2-0.3,3.7-2.6,4.4-3.9c0.1-0.2,0.1-0.3,0.1-0.3c0,0-0.4-0.2-0.5-0.2c-0.1-0.1-0.3-0.1-0.4-0.2c-0.8-0.4-1.5-0.8-2.2-1.3
				c-1.4-1-2.7-2.1-3.7-3.4c-2.1-2.7-3.3-5.9-3.3-9.2c0-8.7,7.9-15.8,17.6-15.8s17.6,7.1,17.6,15.8s-7.9,15.8-17.6,15.8
				c-0.4,0-0.8,0-1.3,0C527.1,100.3,524.4,103.1,520.7,103.1z"/>
			<path fill="#F9C441" d="M520.7,104.1c-0.9,0-1.9-0.2-2.8-0.4c-0.9-0.3-1.5-1.1-1.4-2.1c0.1-0.9,0.8-1.7,1.7-1.8
				c1.5-0.2,2.6-1.6,3.2-2.7c0,0,0,0,0,0c-0.8-0.4-1.6-0.9-2.4-1.4c-1.5-1-2.8-2.2-3.9-3.6c-2.3-2.8-3.5-6.3-3.5-9.9
				c0-9.3,8.3-16.8,18.6-16.8s18.6,7.5,18.6,16.8s-8.3,16.8-18.6,16.8c-0.3,0-0.5,0-0.8,0C528,100.7,525,104.1,520.7,104.1z
				 M530.1,67.5c-9.1,0-16.6,6.6-16.6,14.8c0,3.1,1.1,6.1,3.1,8.6c1,1.2,2.2,2.3,3.5,3.2c0.7,0.4,1.4,0.9,2.1,1.2
				c0.1,0.1,0.2,0.1,0.4,0.2c0.5,0.2,0.7,0.3,0.9,0.5l0.3,0.3l0,0.4c0,0.2-0.1,0.5-0.2,0.8c-0.8,1.5-2.4,4-5.1,4.4
				c0.8,0.2,1.5,0.4,2.2,0.4c3.4,0,5.8-2.7,7.4-4.7l0.3-0.4l0.5,0c0.4,0,0.8,0,1.2,0c9.1,0,16.6-6.6,16.6-14.8
				C546.6,74.1,539.2,67.5,530.1,67.5z"/>
		</g>
	</g>
	<g>
		<g>
			<circle fill="#F9C441" cx="525.1" cy="80.2" r="1.3"/>
		</g>
	</g>
	<g>
		<g>
			<circle fill="#F9C441" cx="535" cy="80.2" r="1.3"/>
		</g>
	</g>
	<g>
		<g>
			<g>
				<path fill="#F9C441" d="M525.2,89.2c2.7,2.1,6.8,2,9.2-0.6c0.5-0.6-0.3-1.5-0.9-0.9c-2,2.3-5.3,2.2-7.7,0.4
					C525.2,87.6,524.6,88.7,525.2,89.2L525.2,89.2z"/>
			</g>
		</g>
	</g>
	<g>
		<g>
			<g>
				<path fill="#F9C441" d="M535.5,76.5c0.9,0.1,1.8,0.4,2.6,0.9c0.7,0.4,1.3-0.7,0.6-1.1c-1-0.6-2.1-1-3.2-1
					C534.7,75.2,534.7,76.4,535.5,76.5L535.5,76.5z"/>
			</g>
		</g>
	</g>
	<g>
		<g>
			<g>
				<path fill="#F9C441" d="M525.7,74.7c-1.4,0-2.6,0.6-3.5,1.8c-0.5,0.6,0.6,1.3,1.1,0.6c0.6-0.8,1.5-1.2,2.4-1.1
					C526.5,76,526.5,74.8,525.7,74.7L525.7,74.7z"/>
			</g>
		</g>
	</g>
</g>
<g>
	<path fill="#FFFEFD" d="M475.4,299.1h-24.6c-0.6,0-1.2-0.5-1.3-1.1l-4.7-40.2c-0.1-0.7,0.5-1.4,1.3-1.4h34.1c0.8,0,1.3,0.7,1.3,1.4
		l-4.7,40.2C476.5,298.6,476,299.1,475.4,299.1z"/>
</g>
<g>
	<path fill="#DFEDFC" d="M460,258h20.9l-0.9,6.8c0,0-1.9-1.7-8.3-4C465.1,258.4,460,258,460,258z"/>
</g>
<g>
	<path fill="#DFEDFC" d="M444.6,251.9v-5.2c0-0.3,0.3-0.6,0.6-0.6h35.7c0.3,0,0.6,0.3,0.6,0.6v5.2"/>
	<path fill="#1C4F82" d="M482.5,251.9h-2v-4.8h-34.9v4.8h-2v-5.2c0-0.9,0.7-1.6,1.6-1.6h35.7c0.9,0,1.6,0.7,1.6,1.6V251.9z"/>
</g>
<g>
	<path fill="#1C4F82" d="M475.4,300.1h-24.6c-1.1,0-2.1-0.9-2.2-2l-4.7-40.2c-0.1-0.6,0.1-1.3,0.6-1.8c0.4-0.5,1-0.8,1.7-0.8h34.1
		c0.6,0,1.3,0.3,1.7,0.8s0.6,1.1,0.6,1.8l-4.7,40.2C477.5,299.2,476.5,300.1,475.4,300.1z M446,257.3c-0.1,0-0.2,0-0.2,0.1
		c0,0-0.1,0.1-0.1,0.2l4.7,40.2c0,0.1,0.1,0.2,0.3,0.2h24.6c0.1,0,0.2-0.1,0.3-0.2l4.7-40.2c0-0.1,0-0.2-0.1-0.2
		c0,0-0.1-0.1-0.2-0.1H446z"/>
</g>
<g>
	<path fill="#61C1F9" d="M477.8,288.7h-29.6c-1,0-1.8-0.7-1.9-1.7l-2.2-18.3c-0.1-1.1,0.8-2.1,1.9-2.1H480c1.2,0,2.1,1,1.9,2.1
		l-2.2,18.3C479.7,288,478.8,288.7,477.8,288.7z"/>
	<path fill="#1C4F82" d="M477.8,289.7h-29.6c-1.5,0-2.8-1.1-2.9-2.6l-2.2-18.3c-0.1-0.8,0.2-1.6,0.7-2.2c0.6-0.6,1.4-1,2.2-1H480
		c0.9,0,1.7,0.4,2.2,1c0.5,0.6,0.8,1.4,0.7,2.2l-2.2,18.3C480.6,288.6,479.3,289.7,477.8,289.7z M446.1,267.6
		c-0.3,0-0.6,0.1-0.7,0.3c-0.2,0.2-0.2,0.4-0.2,0.7l2.2,18.3c0.1,0.5,0.5,0.8,1,0.8h29.6c0.5,0,0.9-0.3,1-0.8l2.2-18.3
		c0-0.2,0-0.5-0.2-0.7c-0.2-0.2-0.5-0.3-0.7-0.3H446.1z"/>
</g>
<g>
	<path fill="#DFEDFC" d="M484,257h-41.9c-0.4,0-0.7-0.4-0.6-0.8l1-5c0.1-0.3,0.3-0.5,0.6-0.5H483c0.3,0,0.6,0.2,0.6,0.5l1,5
		C484.7,256.6,484.4,257,484,257z"/>
	<path fill="#1C4F82" d="M484,258h-41.9c-0.5,0-0.9-0.2-1.3-0.6c-0.3-0.4-0.4-0.9-0.3-1.4l1-5c0.2-0.8,0.8-1.3,1.6-1.3H483
		c0.8,0,1.4,0.6,1.6,1.3l1,5c0.1,0.5,0,1-0.3,1.4C485,257.8,484.5,258,484,258z M442.5,256h41l-0.9-4.3h-39.3L442.5,256z"/>
</g>
<g>
	<path fill="#1C4F82" d="M462.1,238.4c-0.2,0-0.4,0-0.7-0.1l0.5-1.9c0.3,0.1,0.8-0.1,1.3-0.5c0.6-0.5,0.9-1.3,0.9-1.7
		c-0.1-0.4-0.3-0.6-2-0.5c-0.6,0-1.2,0.1-1.7,0c-1.4-0.3-2.3-1.2-2.4-2.4c-0.1-1.4,1.1-2.8,2.7-3.3c0.6-0.2,1.1-0.3,1.7-0.4
		c1.4-0.3,2.5-0.5,3.3-1.5c0.2-0.3,0.3-0.5,0.3-0.7c0-0.2-0.4-0.6-1.4-1l0.7-1.9c1.5,0.6,2.4,1.4,2.6,2.4c0.1,0.6,0.1,1.4-0.7,2.4
		c-1.2,1.4-2.9,1.8-4.4,2.1c-0.5,0.1-1,0.2-1.5,0.4c-0.8,0.2-1.3,0.9-1.3,1.3c0,0.3,0.5,0.4,0.8,0.5c0.3,0.1,0.7,0,1.2,0
		c1.3-0.1,3.7-0.2,4.1,2.2c0.2,1.1-0.4,2.5-1.5,3.5C463.8,238.1,462.9,238.4,462.1,238.4z"/>
</g>
<g>
	<g>
		<path fill="#E8F7F1" d="M128.5,241.2c2-1.1,4.5-0.5,5.6,1.5c1.1,2,0.3,4.4-1.5,5.6c1.9-0.8,4.3-0.6,5.5,1.4c1,1.7,0.6,3.7-0.8,5
			c-0.2,0.2-1,0.7-1.3,0.9c2.7-1.6,5-2,6.3,0c1.3,1.9,0.7,4.1-1.8,5.5l-10.9,6c-7.2,4.1-16.3,1.7-20.5-5.5
			c-4.1-7.2-1.7-16.3,5.5-20.5l8.7-5l16.6-9.6c2-1.1,4.2-1,5.3,1s0.2,4-1.8,5.1L128.5,241.2"/>
	</g>
	<g>
		<polygon fill="#91F2DD" points="129.8,233.5 131.5,239.4 133.7,238.1 132.1,232.2 		"/>
	</g>
	<g>
		<path fill="#56D6BC" d="M122.1,270c-1.4,0-2.8-0.2-4.2-0.6c-4.1-1.1-7.6-3.7-9.7-7.4s-2.7-8-1.6-12.1c1.1-4.1,3.7-7.6,7.4-9.7
			l25.3-14.6c1.2-0.7,2.5-1,3.6-0.8c1.3,0.2,2.4,1,3.1,2.1c0.7,1.2,0.8,2.5,0.3,3.7c-0.4,1.1-1.3,2-2.5,2.7l-11.4,6.6
			c1,0.4,1.9,1.2,2.5,2.1c0.9,1.6,0.8,3.2,0.1,4.6c1.5,0.1,3,0.8,3.9,2.3c0.8,1.3,0.9,2.8,0.4,4.1c1.9-0.2,3.1,0.7,3.7,1.7
			c0.7,1.1,1,2.3,0.7,3.5c-0.3,1.4-1.3,2.6-2.8,3.4l-10.9,6C127.6,269.3,124.9,270,122.1,270z M142.3,226.8c-0.6,0-1.3,0.2-2,0.6
			l-25.3,14.6c-3.2,1.9-5.5,4.9-6.5,8.5c-1,3.6-0.5,7.4,1.4,10.6c1.9,3.2,4.9,5.5,8.5,6.5c3.6,1,7.4,0.5,10.6-1.4l10.9-6
			c1-0.6,1.7-1.3,1.9-2.2c0.1-0.6,0-1.3-0.4-1.9c-0.3-0.5-1.2-1.8-5,0.3c-0.5,0.3-1.1,0.1-1.3-0.3c-0.3-0.5-0.2-1.1,0.3-1.4
			c0.1,0,0.2-0.1,0.3-0.2c0.2-0.1,0.7-0.5,0.8-0.6c1.1-1.1,1.4-2.5,0.7-3.8c-0.8-1.4-2.7-1.6-4.2-0.9c-0.5,0.2-1,0-1.3-0.4
			c-0.2-0.5-0.1-1,0.3-1.3c1.2-0.8,2-2.7,1.2-4.2c-0.4-0.7-1.1-1.2-1.9-1.4c-0.8-0.2-1.6-0.1-2.4,0.3c-0.5,0.3-1.1,0.1-1.4-0.4
			c-0.3-0.5-0.1-1.1,0.4-1.4c0,0,0,0,0,0c0,0,0,0,0,0l14.8-8.6c0.8-0.5,1.4-1.1,1.6-1.7c0.3-0.7,0.2-1.3-0.2-2s-0.9-1.1-1.6-1.2
			C142.6,226.8,142.5,226.8,142.3,226.8z"/>
	</g>
	<g>
		<g>
			
				<rect x="125.9" y="235.5" transform="matrix(0.2411 0.9705 -0.9705 0.2411 328.0845 53.5533)" fill="#56D6BC" width="7.8" height="2"/>
		</g>
		<g>
			
				<rect x="128.9" y="233.9" transform="matrix(0.241 0.9705 -0.9705 0.241 328.9657 49.1962)" fill="#56D6BC" width="8.2" height="2"/>
		</g>
		<g>
			<path fill="#56D6BC" d="M127.1,233.1c-0.9,0-1.8-0.3-2.6-0.8c-0.8-0.6-1.5-1.8-0.9-2.9c0.2-0.5,0.7-1.1,1.9-1.3
				c1.2-0.2,2.4-0.1,3.8,0.4l0.3,0.1c0.1,0,0.2,0.1,0.3,0.1c-0.2-1-0.1-2.1,0.2-3.1c0.7-2.4,2.2-3.7,3.8-3.3
				c0.8,0.2,1.5,0.8,1.9,1.6c0.4,1,0.5,2.1,0,3c-0.3,0.5-0.7,1-1,1.4c-0.6,0.6-1.2,1.2-1.9,1.7c-0.1,0.1-0.2,0.2-0.4,0.3
				c0,0.2-0.1,0.5-0.3,0.6C130.6,232.2,128.8,233.1,127.1,233.1z M126.6,230c-0.3,0-0.5,0-0.8,0.1c-0.3,0.1-0.5,0.2-0.5,0.2
				c0,0,0.1,0.3,0.3,0.4c1,0.7,2.3,0.4,3.4-0.1c-0.1,0-0.2-0.1-0.3-0.1l-0.3-0.1C127.9,230.1,127.2,230,126.6,230z M133.2,224.2
				c-0.5,0-1.1,1.1-1.3,1.9c-0.2,0.7-0.2,1.4-0.1,2.1c0.5-0.4,1-0.9,1.5-1.3c0.3-0.3,0.5-0.6,0.7-0.9c0.2-0.3,0.1-0.8,0-1.3
				C133.7,224.6,133.6,224.3,133.2,224.2C133.3,224.3,133.2,224.2,133.2,224.2z"/>
		</g>
		<g>
			<path fill="#56D6BC" d="M117,234.6c-1.4,0-2.7-0.4-3.9-1.1c-0.5-0.3-0.6-0.9-0.3-1.4c0.3-0.5,0.9-0.6,1.4-0.3
				c1.5,0.9,3.4,1.1,5,0.4c0.4-0.2,0.7-0.4,1.1-0.6c0.5-0.3,0.9-0.6,1.5-0.8c1-0.4,2.2-0.6,3.3-0.5c0.5,0.1,0.9,0.5,0.9,1.1
				s-0.5,0.9-1.1,0.9c-0.8-0.1-1.6,0-2.3,0.3c-0.4,0.2-0.8,0.4-1.2,0.7c-0.4,0.2-0.8,0.5-1.3,0.7C119,234.4,118,234.6,117,234.6z"/>
		</g>
	</g>
</g>
<g>
	<path fill="#56D6BC" d="M126.8,243.1c-0.3,0-0.7-0.2-0.9-0.5c-0.3-0.5-0.1-1.1,0.4-1.4l1.7-1c0.5-0.3,1.1-0.1,1.4,0.4
		c0.3,0.5,0.1,1.1-0.4,1.4l-1.7,1C127.1,243.1,127,243.1,126.8,243.1z"/>
</g>
<g>
	<g>
		<g>
			<path fill="#DFEDFC" d="M96.6,197.8c0,0,1.9,6.4-3.7,14.5c-5.6,8.1-11.8,8.1-11.8,8.1l19.9-5.3L96.6,197.8z"/>
		</g>
		<g>
			<path fill="#DFEDFC" d="M102,220.6l-42.4,11.4c-1.4,0.4-2.9-0.5-3.3-1.9l0,0c-0.4-1.4,0.5-2.9,1.9-3.3l42.4-11.4
				c1.4-0.4,2.9,0.5,3.3,1.9l0,0C104.3,218.7,103.5,220.2,102,220.6z"/>
		</g>
		<g>
			<path fill="#1C4F82" d="M57.7,227.6c-0.4,0-0.8-0.3-1-0.7l-4.9-18.4c-3.1-11.7,4.5-24,17-27.3c12.5-3.4,25.3,3.5,28.4,15.2
				l4.9,18.4c0.1,0.5-0.2,1.1-0.7,1.2c-0.5,0.1-1.1-0.2-1.2-0.7l-4.9-18.4c-2.9-10.7-14.5-16.9-26-13.8
				c-11.5,3.1-18.4,14.2-15.6,24.9l4.9,18.4c0.1,0.5-0.2,1.1-0.7,1.2C57.9,227.6,57.8,227.6,57.7,227.6z"/>
		</g>
		<g>
			<path fill="#1C4F82" d="M59,233c-1.7,0-3.1-1.1-3.5-2.7c-0.5-2,0.6-4,2.6-4.5l42.4-11.4c0.3-0.1,0.6-0.1,1-0.1
				c1.7,0,3.1,1.1,3.5,2.7c0.3,0.9,0.1,1.9-0.4,2.8c-0.5,0.8-1.3,1.5-2.2,1.7l-42.4,11.4C59.6,233,59.3,233,59,233z M101.3,216.3
				c-0.1,0-0.3,0-0.4,0.1l-42.4,11.4c-0.9,0.2-1.4,1.2-1.2,2c0.2,0.9,1.2,1.4,2,1.2l42.4-11.4c0.4-0.1,0.8-0.4,1-0.8
				c0.2-0.4,0.3-0.8,0.2-1.3C102.8,216.8,102.1,216.3,101.3,216.3z"/>
		</g>
		<g>
			<path fill="#1C4F82" d="M81.2,230.5c-0.7,0-1.4-0.2-2.1-0.6c-1-0.6-1.6-1.4-1.9-2.5c-0.1-0.5,0.2-1.1,0.7-1.2
				c0.5-0.1,1.1,0.2,1.2,0.7c0.1,0.5,0.5,1,1,1.3s1.1,0.4,1.6,0.2c1.1-0.3,1.8-1.5,1.5-2.6c-0.1-0.5,0.2-1.1,0.7-1.2
				c0.5-0.1,1.1,0.2,1.2,0.7c0.6,2.2-0.7,4.5-2.9,5.1C81.9,230.5,81.6,230.5,81.2,230.5z"/>
		</g>
		<g>
			<path fill="#1C4F82" d="M66.5,182c-0.3-1.2,0.4-2.5,1.7-2.8s2.6,0.4,2.9,1.6"/>
		</g>
		<g>
			<path fill="#1C4F82" d="M58,206c-0.5,0-0.9-0.3-1-0.8c0-0.2-0.9-5.8,1.9-10.4c2.4-4,6.4-4.7,6.5-4.7c0.5-0.1,1.1,0.3,1.1,0.8
				c0.1,0.5-0.3,1.1-0.8,1.1c-0.1,0-3.2,0.6-5.1,3.8c-2.5,4-1.7,9-1.7,9.1c0.1,0.5-0.3,1.1-0.8,1.1C58.1,206,58.1,206,58,206z"/>
		</g>
	</g>
	<g>
		<path fill="#1C4F82" d="M48.3,187.8c-0.2,0-0.4-0.1-0.6-0.2l-3.6-2.5c-0.5-0.3-0.6-0.9-0.2-1.4c0.3-0.5,0.9-0.6,1.4-0.2l3.6,2.5
			c0.5,0.3,0.6,0.9,0.2,1.4C48.9,187.7,48.6,187.8,48.3,187.8z"/>
	</g>
	<g>
		<path fill="#1C4F82" d="M52.6,184c-0.4,0-0.8-0.3-0.9-0.7l-1.5-4.1c-0.2-0.5,0.1-1.1,0.6-1.3c0.5-0.2,1.1,0.1,1.3,0.6l1.5,4.1
			c0.2,0.5-0.1,1.1-0.6,1.3C52.8,184,52.7,184,52.6,184z"/>
	</g>
	<g>
		<path fill="#1C4F82" d="M46.1,193.1c0,0-0.1,0-0.1,0l-4.3-0.6c-0.5-0.1-0.9-0.6-0.9-1.1c0.1-0.5,0.6-0.9,1.1-0.9l4.3,0.6
			c0.5,0.1,0.9,0.6,0.9,1.1C47,192.8,46.6,193.1,46.1,193.1z"/>
	</g>
</g>
<g>
	<g>
		<path fill="#DFEDFC" d="M421.5,48.2c1.3-1.8,4.7-4.7,4.7-4.7l-4-5c0,0-2.6,7.8-5,8.7s2.7,5.9,2.7,5.9"/>
	</g>
	<g>
		<path fill="#1C4F82" d="M419.1,53.5c-0.9,0-1.7-0.5-2-1.4c-0.7-2.1-1.5-3.7-2.1-4.7c-0.9-1.3-2-2.2-2.7-2.7
			c-0.6-0.4-0.9-1-0.9-1.8c0-0.7,0.3-1.4,0.8-1.8c1.3-1,3-2.6,4-4.5c0.4-0.7,0.8-1.7,1.1-2.9c0.2-0.9,1.1-1.6,2-1.6
			c1,0,1.8,0.6,2,1.5c0.3,1.2,0.7,2.2,1.1,2.9c1,1.8,2.8,3.5,4.1,4.5c0.5,0.4,0.8,1.1,0.8,1.8c0,0.7-0.4,1.3-0.9,1.7
			c-1,0.7-2.3,1.8-3.4,3.3c-0.7,0.9-1.3,2.3-1.9,4.1C420.8,52.9,420,53.5,419.1,53.5z M419.2,34.1c-0.1,0-0.1,0-0.1,0.1
			c-0.4,1.4-0.8,2.5-1.3,3.4c-1.2,2.1-3.1,3.9-4.5,5c-0.1,0.1-0.1,0.1-0.1,0.2c0,0.1,0,0.1,0.1,0.2c0.9,0.6,2.2,1.7,3.2,3.2
			c0.8,1.1,1.6,2.8,2.4,5.1c0,0.1,0.2,0.1,0.2,0c0.6-2,1.3-3.5,2.1-4.7c1.2-1.7,2.8-3,3.9-3.7c0.1-0.1,0.1-0.1,0.1-0.2
			c0-0.1,0-0.1-0.1-0.2c-1.4-1.2-3.4-3-4.5-5.1c-0.5-0.9-1-2-1.3-3.4C419.3,34.2,419.3,34.1,419.2,34.1z"/>
	</g>
</g>
<g>
	<g>
		<path fill="#DFEDFC" d="M403.9,34.8c0.9-1.3,3.4-3.4,3.4-3.4l-2.9-3.6c0,0-1.9,5.6-3.6,6.2c-1.7,0.6,1.9,4.2,1.9,4.2"/>
	</g>
	<g>
		<path fill="#1C4F82" d="M402.1,38.8c-0.8,0-1.4-0.5-1.7-1.2c-0.5-1.5-1-2.6-1.5-3.3c-0.6-0.9-1.3-1.5-1.9-1.9
			c-0.5-0.3-0.8-0.9-0.8-1.5c0-0.6,0.2-1.1,0.7-1.5c0.9-0.7,2.1-1.8,2.8-3.1c0.3-0.5,0.5-1.2,0.8-2c0.2-0.8,0.9-1.3,1.7-1.3
			c0.8,0,1.5,0.5,1.7,1.3c0.2,0.8,0.5,1.5,0.8,2c0.6,1,1.6,2.1,2.8,3.2c0.5,0.4,0.7,0.9,0.7,1.5c0,0.6-0.3,1.1-0.8,1.5
			c-0.7,0.5-1.6,1.2-2.4,2.3c-0.5,0.6-0.9,1.6-1.3,2.8C403.6,38.3,402.9,38.8,402.1,38.8z M398.4,30.9c0.9,0.6,1.7,1.4,2.2,2.3
			c0.5,0.7,1,1.8,1.5,3.2c0.4-1.2,0.9-2.1,1.4-2.8c0.9-1.2,1.9-2.1,2.7-2.6c-1-0.9-2.3-2.1-3.2-3.6c-0.3-0.5-0.5-1.1-0.8-1.8
			c-0.2,0.7-0.5,1.3-0.7,1.8C400.7,28.8,399.4,30.1,398.4,30.9z"/>
	</g>
</g>
<g>
	<path fill="#FFFFFF" d="M185.4,295.8h213c2.2,0,4-1.9,4-4.3V148.8c-0.1-7.7-5.8-13.9-12.7-13.9H194.2c-7.1,0-12.8,6.4-12.7,14.3
		v142.3C181.4,293.9,183.2,295.8,185.4,295.8z"/>
	<path fill="#1C4F82" d="M398.4,296.8h-213c-2.8,0-5-2.4-5-5.3V149.2c-0.1-4.3,1.6-8.4,4.4-11.3c2.5-2.6,5.9-4,9.3-4h195.5
		c7.5,0,13.6,6.7,13.7,14.9v142.7C403.4,294.5,401.1,296.8,398.4,296.8z M194.2,135.9c-2.9,0-5.7,1.2-7.9,3.4
		c-2.5,2.5-3.9,6.1-3.8,9.9v142.3c0,1.8,1.3,3.3,3,3.3h213c1.7,0,3-1.5,3-3.3V148.8c-0.1-7.1-5.4-12.9-11.7-12.9H194.2z"/>
</g>
<g>
	<path fill="#F7F7F7" d="M198.1,289h187.7c2.2,0,4-1.8,4-4V151.5c0-2.2-1.8-4-4-4H198.1c-2.2,0-4,1.8-4,4V285
		C194.1,287.2,195.8,289,198.1,289z"/>
	<path fill="#1C4F82" d="M385.8,290H198.1c-2.8,0-5-2.2-5-5V151.5c0-2.8,2.2-5,5-5h187.7c2.8,0,5,2.2,5,5V285
		C390.8,287.8,388.5,290,385.8,290z M198.1,148.5c-1.7,0-3,1.3-3,3V285c0,1.7,1.3,3,3,3h187.7c1.7,0,3-1.3,3-3V151.5
		c0-1.7-1.3-3-3-3H198.1z"/>
</g>
<g>
	<g>
		<path fill="#D0E1F4" d="M268.9,284.3c0,2.4,2,6.5,4.4,6.5h15.6c1.6,0,4.4,0,6,0h15.6c2.4,0,4.4-4.1,4.4-6.5H268.9z"/>
	</g>
	<g>
		<path fill="#1C4F82" d="M310.5,291.8h-37.2c-3.1,0-5.4-4.5-5.4-7.5v-1h48v1C315.9,287.2,313.6,291.8,310.5,291.8z M270,285.3
			c0.4,2.1,1.9,4.5,3.3,4.5h37.2c1.3,0,2.9-2.4,3.3-4.5H270z"/>
	</g>
</g>
<g>
	<path fill="#D0E1F4" d="M513.5,299c0,0-115.7,0-221.5,0s-211.5,0-211.5,0s105.7,0,211.5,0S513.5,299,513.5,299z"/>
	<path fill="#1C4F82" d="M513.5,300h-433c-0.6,0-1-0.4-1-1s0.4-1,1-1h433c0.6,0,1,0.4,1,1S514.1,300,513.5,300z"/>
</g>
<g>
	<path fill="#56D6BC" d="M301.3,221.1C301.3,221.1,301.3,221.1,301.3,221.1c-0.5-3-0.2-5.2,1-6.4l1.1,1.4c0,0.1,0.1,0.1,0.2,0.1
		c0.1,0,0.1,0,0.2-0.1c0.8-0.9,1.6-2.7,1.4-5.2c-0.1-1.6-0.6-2.9-1.4-3.5c-0.1-0.1-0.3-0.1-0.4,0l-1.4,1.6c-1.5-1.8-0.9-3-0.1-4.6
		c0.2-0.4,0.4-0.8,0.6-1.3c1.8-4,3.1-8.8-0.3-13.5c-2.3-3.2-5.5-4.8-9.2-4.8c-1.1,0-2.3,0.1-3.5,0.4c-0.1-0.7-0.6-2.6-1.7-2.6
		c-0.3,0-0.5,0.1-0.8,0.3c-0.6,0.4-0.9,2.7-0.9,3.5c-0.4,0.5-2.7,3-3.6,4.4c-0.2,0.3-0.4,0.9-0.4,1.2c0,0.4,0,0.8,0,1.1
		c0,0.8,0,1.6-0.1,1.9c-0.1,0.5-1.2,1.4-2.8,2.5c-0.3,0.2-0.7,0.7-0.7,1.1c0.1,2,1.9,3,3.5,3c0.5,0,0.9-0.1,1.3-0.3
		c0.7-0.5,1.1-1.1,1.2-2l1.4-1.5c0.3,0,1,0.1,1.8,0.1c1.6,0,2.8-0.2,3.5-0.6c1.3-0.7,1.9-1.6,2.5-2.9l0.2,0.2c-0.4,2.9-2.2,5.4-4,8
		c-2.2,3.1-4.5,6.4-4.4,10.4c0.2,5,3.3,8.4,6.4,11.6l0.1,0c1.5,1.6,3,3.1,4.2,4.8c2.6,3.6,3,6.4,3.1,8.4c0.2,4.5-2.6,8.1-7.3,8.1
		c-4.5,0-6.9-2.9-6.9-5.4c-0.1-3.2,2.3-5.3,5.1-5.3s4.1,1.8,4.1,3.3s-0.7,2.8-2.5,2.5l-0.4,1.6c1.7,0.6,4.4-0.4,5-3.4
		c0.8-3.8-1.9-6.5-5.6-6.8c-3.9-0.3-8.3,2.3-8.5,7.6c-0.2,6.1,4.6,9.1,9.6,9.1c6.7,0,11.7-5,12.5-10.6c0.7-4.6-1-9.8-2.4-14.5
		L301.3,221.1z"/>
</g>
<g>
	<path fill="#FFFFFF" d="M419.2,298.5H164.6c-1.7,0-3.2-1.1-3.8-2.7l-2.2-6.2c-0.9-2.6,1-5.3,3.8-5.3h258.9c2.8,0,4.7,2.7,3.8,5.3
		l-2.2,6.2C422.4,297.4,420.9,298.5,419.2,298.5z"/>
	<path fill="#1C4F82" d="M419.2,299.5H164.6c-2.1,0-4-1.3-4.7-3.3l-2.2-6.2c-0.5-1.6-0.3-3.2,0.6-4.6c0.9-1.3,2.4-2.1,4.1-2.1h258.9
		c1.6,0,3.1,0.8,4.1,2.1c0.9,1.3,1.2,3,0.6,4.6l-2.2,6.2C423.2,298.2,421.3,299.5,419.2,299.5z M162.5,285.3c-1,0-1.9,0.5-2.4,1.3
		s-0.7,1.8-0.4,2.7l2.2,6.2c0.4,1.2,1.6,2,2.8,2h254.6c1.3,0,2.4-0.8,2.8-2l2.2-6.2c0.3-0.9,0.2-1.9-0.4-2.7
		c-0.6-0.8-1.5-1.3-2.5-1.3H162.5z"/>
</g>
<g>
	<circle fill="#1C4F82" cx="36.3" cy="122.6" r="2.5"/>
</g>
<g>
	<circle fill="#1C4F82" cx="136.3" cy="64.6" r="2.5"/>
</g>
<g>
	<circle fill="#1C4F82" cx="154.3" cy="54.6" r="2.5"/>
</g>
<g>
	<circle fill="#1C4F82" cx="174.3" cy="43.6" r="2.5"/>
</g>
<g>
	<circle fill="#1C4F82" cx="194.3" cy="34.6" r="2.5"/>
</g>
<g>
	<circle fill="#1C4F82" cx="212.3" cy="26.6" r="2.5"/>
</g>
<g>
	<circle fill="#1C4F82" cx="232.3" cy="18.6" r="2.5"/>
</g>
<g>
	<circle fill="#1C4F82" cx="257.3" cy="12.6" r="2.5"/>
</g>
<g>
	<circle fill="#1C4F82" cx="280.3" cy="11.6" r="2.5"/>
</g>
<g>
	<circle fill="#1C4F82" cx="305.3" cy="16.6" r="2.5"/>
</g>
<g>
	<circle fill="#1C4F82" cx="322.3" cy="25.6" r="2.5"/>
</g>
<g>
	<circle fill="#1C4F82" cx="337.3" cy="40.6" r="2.5"/>
</g>
<g>
	<circle fill="#1C4F82" cx="344.3" cy="54.6" r="2.5"/>
</g>
<g>
	<circle fill="#1C4F82" cx="322.3" cy="52.6" r="2.5"/>
</g>
<g>
	<circle fill="#1C4F82" cx="300.3" cy="48.6" r="2.5"/>
</g>
<g>
	<circle fill="#1C4F82" cx="256.3" cy="54.6" r="2.5"/>
</g>
<g>
	<circle fill="#1C4F82" cx="279.3" cy="48.6" r="2.5"/>
</g>
<g>
	<circle fill="#1C4F82" cx="234.3" cy="66.6" r="2.5"/>
</g>
<g>
	<circle fill="#1C4F82" cx="522.3" cy="124.6" r="2.5"/>
</g>
<g>
	<circle fill="#1C4F82" cx="426.3" cy="75.6" r="2.5"/>
</g>
<g>
	<circle fill="#1C4F82" cx="408.3" cy="71.6" r="2.5"/>
</g>
<g>
	<circle fill="#1C4F82" cx="388.3" cy="75.6" r="2.5"/>
</g>
<g>
	<circle fill="#1C4F82" cx="373.3" cy="83.6" r="2.5"/>
</g>
<g>
	<circle fill="#1C4F82" cx="512.3" cy="200.6" r="2.5"/>
</g>
<g>
	<circle fill="#1C4F82" cx="477.3" cy="195.6" r="2.5"/>
</g>
<g>
	<circle fill="#1C4F82" cx="161.3" cy="151.6" r="2.5"/>
</g>
<g>
	<circle fill="#1C4F82" cx="151.3" cy="159.6" r="2.5"/>
</g>
<g>
	<circle fill="#1C4F82" cx="140.3" cy="171.6" r="2.5"/>
</g>
<g>
	<circle fill="#1C4F82" cx="126.3" cy="200.6" r="2.5"/>
</g>
<g>
	<circle fill="#1C4F82" cx="131.3" cy="184.6" r="2.5"/>
</g>
<g>
	<circle fill="#1C4F82" cx="125.3" cy="215.6" r="2.5"/>
</g>
<g>
	<circle fill="#1C4F82" cx="496.3" cy="195.6" r="2.5"/>
</g>
<g>
	<circle fill="#1C4F82" cx="459.3" cy="200.6" r="2.5"/>
</g>
<g>
	<circle fill="#1C4F82" cx="442.3" cy="209.6" r="2.5"/>
</g>
<g>
	<circle fill="#1C4F82" cx="429.3" cy="223.6" r="2.5"/>
</g>
<g>
	<circle fill="#1C4F82" cx="424.3" cy="239.6" r="2.5"/>
</g>
<g>
	<circle fill="#1C4F82" cx="432.3" cy="253.6" r="2.5"/>
</g>
<g>
	<circle fill="#1C4F82" cx="542.3" cy="118.6" r="2.5"/>
</g>
<g>
	<circle fill="#1C4F82" cx="562.3" cy="117.6" r="2.5"/>
</g>
<g>
	<circle fill="#1C4F82" cx="580.3" cy="127.6" r="2.5"/>
</g>
<g>
	<circle fill="#1C4F82" cx="589.3" cy="143.6" r="2.5"/>
</g>
<g>
	<circle fill="#1C4F82" cx="588.3" cy="162.6" r="2.5"/>
</g>
<g>
	<circle fill="#1C4F82" cx="24.3" cy="138.6" r="2.5"/>
</g>
<g>
	<circle fill="#1C4F82" cx="9.3" cy="173.6" r="2.5"/>
</g>
<g>
	<circle fill="#1C4F82" cx="13.3" cy="154.6" r="2.5"/>
</g>
<g>
	<circle fill="#1C4F82" cx="17.3" cy="192.6" r="2.5"/>
</g>
<g>
	<circle fill="#1C4F82" cx="39.3" cy="208.6" r="2.5"/>
</g>
<g>
	<g>
		<circle fill="#DFEDFC" cx="463.3" cy="134.2" r="44.2"/>
		<path fill="#1C4F82" d="M463.3,179.2c-24.9,0-45.1-20.2-45.1-45.1c0-24.9,20.2-45.1,45.1-45.1s45.1,20.2,45.1,45.1
			C508.4,159,488.2,179.2,463.3,179.2z M463.3,90.8c-23.9,0-43.4,19.5-43.4,43.4c0,23.9,19.5,43.4,43.4,43.4s43.4-19.5,43.4-43.4
			C506.7,110.2,487.3,90.8,463.3,90.8z"/>
	</g>
	<g>
		<path fill="#FFFFFF" d="M493.2,131.4c-0.3,3.2,2.6,2.3,3.8-0.8c4.6-11.7,9.7-25.5,4.6-35.9c-1.9-3.9-4.7-7.4-7.9-10.5
			c-13-12.8-31.4-19.8-48.2-12c-1.3,0.6-2.5,1.4-3.5,2.4c-2,2.1-2.7,4.2-2.6,6.2l-1.1-0.6c-0.1-0.2-0.3-0.4-0.6-0.3
			c-2.6,0.2-11,6.9-13,17c-2.5,12.5,1.7,28.9,1.7,28.9c0.2,0.7,1,4.5,2.5,6c1.5,1.5,3.8,0.8,4.1,0l0,1.2c1.3,16.1,10.7,28,14.7,30.9
			c5.9,4.4,9.6,5.4,15.2,5.4c5.6,0,10.8-1.5,15-4.2c4.2-2.7,12.8-12.2,14.8-29.8L493.2,131.4z"/>
	</g>
	<g>
		<g>
			<path fill="#1C4F82" d="M478.2,127.3c-1.7,0.3-3.2-1.2-2.9-2.9c0.2-1,1-1.7,1.9-1.9c1.7-0.3,3.2,1.2,2.9,2.9
				C479.9,126.3,479.2,127.1,478.2,127.3z"/>
		</g>
	</g>
	<g>
		<g>
			<path fill="#1C4F82" d="M448,127.3c-1.7,0.3-3.2-1.2-2.9-2.9c0.2-1,1-1.7,1.9-1.9c1.7-0.3,3.2,1.2,2.9,2.9
				C449.7,126.3,448.9,127.1,448,127.3z"/>
		</g>
	</g>
	<g>
		<path fill="#1C4F82" d="M463.5,153c-0.2,0-0.5,0-0.7,0c-3.1-0.2-6.2-1.2-9.2-3.1c-0.5-0.3-0.6-0.9-0.3-1.3
			c0.3-0.5,0.9-0.6,1.3-0.3c2.6,1.7,5.5,2.7,8.2,2.8c3.1,0.2,6-0.9,7.7-2.8c0.4-0.4,1-0.4,1.4-0.1c0.4,0.4,0.4,1,0.1,1.4
			C470.1,151.7,467,153,463.5,153z"/>
	</g>
	<g>
		<path fill="#1C4F82" d="M447.5,134.6c-2.7,0-5.4-0.1-8-0.4c-0.8-0.1-1.8-0.2-2.4-1c-0.7-0.8-0.7-1.9-0.7-2.6l0-6.5
			c0-0.2,0-0.4,0-0.6c0-1.6-0.1-3.8,1.9-4.9c1-0.5,2.1-0.6,3.2-0.7c4.4-0.3,8.8-0.2,13.2,0.2c1.1,0.1,2.4,0.3,3.2,1.3
			c0.9,1,0.9,2.4,0.9,3.4l0,7.8c0,0.3,0,0.5,0,0.8c-0.1,1-0.4,1.7-1,2.2c-0.6,0.5-1.4,0.6-1.9,0.6
			C453.1,134.5,450.3,134.6,447.5,134.6z M446.7,119.7c-1.7,0-3.4,0.1-5.1,0.2c-0.9,0.1-1.7,0.1-2.4,0.5c-0.9,0.5-1,1.5-0.9,3.1
			c0,0.2,0,0.5,0,0.7l0,6.5c0,0.5,0,1,0.2,1.3c0.2,0.2,0.7,0.3,1.2,0.3c5.3,0.5,10.7,0.5,15.9,0c0.3,0,0.7-0.1,0.9-0.2
			c0.2-0.1,0.3-0.4,0.3-0.9c0-0.2,0-0.4,0-0.6l0-7.8c0-0.8,0-1.6-0.4-2.1c-0.4-0.4-1.2-0.6-2-0.6
			C451.8,119.9,449.3,119.7,446.7,119.7z"/>
	</g>
	<g>
		<path fill="#1C4F82" d="M478,134.6L478,134.6c-2.8,0-5.6-0.1-8.3-0.4c-0.5-0.1-1.2-0.1-1.9-0.6c-0.6-0.5-1-1.2-1-2.2
			c0-0.3,0-0.5,0-0.8l0-7.7c0-0.9,0-2.3,0.9-3.4c0.9-1,2.1-1.2,3.2-1.3c4.3-0.4,8.8-0.5,13.2-0.2c1.1,0.1,2.2,0.2,3.2,0.7
			c2,1.1,2,3.3,1.9,4.9c0,0.2,0,0.4,0,0.6l0,6.5c0,0.7,0,1.8-0.7,2.6c-0.7,0.7-1.6,0.9-2.4,1C483.4,134.5,480.7,134.6,478,134.6z
			 M478.8,119.7c-2.6,0-5.2,0.1-7.7,0.4c-0.7,0.1-1.6,0.2-2,0.6c-0.4,0.4-0.4,1.2-0.4,2.1l0,7.8c0,0.2,0,0.4,0,0.6
			c0,0.4,0.1,0.7,0.3,0.9c0.2,0.1,0.6,0.2,0.9,0.2c2.7,0.3,5.4,0.4,8.1,0.4l0,0c2.6,0,5.2-0.1,7.8-0.4c0.5,0,1-0.1,1.2-0.3
			c0.2-0.2,0.2-0.7,0.2-1.3l0-6.5c0-0.2,0-0.5,0-0.7c0-1.6,0-2.6-0.9-3.1c-0.6-0.3-1.4-0.4-2.4-0.5
			C482.3,119.8,480.5,119.7,478.8,119.7z"/>
	</g>
	<g>
		<path fill="#1C4F82" d="M467,125h-8c-0.6,0-1-0.4-1-1s0.4-1,1-1h8c0.6,0,1,0.4,1,1S467.6,125,467,125z"/>
	</g>
	<g>
		<path fill="#1C4F82" d="M462.8,170.3c-5.5,0-9.5-0.9-15.8-5.6c-4.1-3.1-13.6-15.1-15-31.2c-0.1,0-0.1,0-0.2,0.1
			c-1.3,0.3-2.7-0.1-3.6-1.1c-1.4-1.4-2.2-3.9-2.7-6.1l-0.1-0.3c-0.2-0.7-4.2-16.8-1.7-29.4c2.1-10.5,10.7-17.5,13.9-17.8
			c0.6,0,1.2,0.3,1.5,0.9c1.3,2.6,7.1,13.3,11.3,18.2l0.2,0.2c0.6,0.7,1.3,1.5,1.1,3c-0.3,2.2-1.8,2.9-3,3.1l-0.3,0
			c-14.1,2.2-15.1,2.5-15.1,9.6c0,0.1,0,9.1,0.5,17.4c0.1,0.2,0.1,0.5,0.1,0.8c0,0.3,0,0.5,0.1,0.8c1.2,15.6,10.3,27.3,14.3,30.2
			c5.9,4.4,9.4,5.2,14.6,5.2c5.4,0,10.4-1.4,14.4-4c4.1-2.6,12.4-12.1,14.3-29.1c1-8.6,1.5-14.4,1.5-18.3c0-8.2-2.7-10.9-2.7-10.9
			c-0.4-0.4-0.4-1-0.1-1.4c0.4-0.4,1-0.4,1.4-0.1c0.1,0.1,3.4,3.2,3.3,12.4c0,4-0.5,9.9-1.5,18.5c-2,17.7-10.5,27.5-15.2,30.5
			C473.9,168.8,468.5,170.3,462.8,170.3z M437.4,81c-2.5,0.6-10,6.8-11.9,16.2c-2.4,12.2,1.6,28.4,1.6,28.5c0,0.1,0.1,0.2,0.1,0.4
			c0.3,1,1,4,2.2,5.2c0.6,0.6,1.2,0.6,1.6,0.6c0.3,0,0.6-0.1,0.7-0.2c-0.6-8.4-0.5-17.5-0.5-17.6c0-8.9,3.2-9.4,16.8-11.5l0.3,0
			c1-0.2,1.2-0.6,1.3-1.4c0.1-0.6-0.1-0.8-0.7-1.5l-0.2-0.2C444.3,94.1,438.6,83.4,437.4,81z"/>
	</g>
	<g>
		<path fill="#1C4F82" d="M493.9,134.4c-0.2,0-0.3,0-0.4-0.1c-0.4-0.1-1.7-0.6-1.5-3c0.1-0.5,0.5-0.9,1.1-0.9c0.5,0,0.9,0.5,0.9,1.1
			c-0.1,0.8,0.1,1,0.1,1c0.2,0,1.2-0.6,1.8-2.2c4.1-10.5,9.6-24.8,4.7-35.1c-1.6-3.4-4.2-6.7-7.7-10.2c-11.2-11.1-29.5-20-47.1-11.8
			c-1.3,0.6-2.4,1.3-3.2,2.2c-4.1,4.3-2.1,8.4,0.8,12.9c3.5,5.4,7,10.6,11.8,14.5c14.2,11.8,39.3,0.4,40.7-0.8
			c0.4-0.3,1-0.3,1.4,0.1c0.3,0.4,0.3,1-0.1,1.4c-1.4,1.2-27.7,13.6-43.2,0.8c-5-4.1-8.6-9.4-12.2-15c-2.4-3.8-6.1-9.5-0.6-15.3
			c1-1,2.3-1.9,3.8-2.6c18.5-8.6,37.6,0.6,49.3,12.2c3.7,3.6,6.3,7.2,8.1,10.7c5.4,11-0.4,25.8-4.6,36.6
			C496.8,133,495.3,134.4,493.9,134.4z"/>
	</g>
	<g>
		<path fill="#F7F7F7" d="M457.8,131.3c-0.1,0.6-0.2,1.2-0.7,1.5c-0.4,0.3-0.9,0.4-1.4,0.4c-5.4,0.6-10.8,0.6-16.1,0
			c-0.7-0.1-1.4-0.2-1.8-0.7c-0.5-0.5-0.5-1.2-0.5-1.9c0-2.2,0-4.3,0-6.5c0-1.7-0.3-3.7,1.4-4.7c0.8-0.5,1.8-0.5,2.8-0.6
			c4.3-0.3,8.7-0.2,13,0.2c0.9,0.1,2,0.2,2.6,1c0.6,0.7,0.7,1.8,0.7,2.7c0,2.6,0,5.2,0,7.8C457.8,130.8,457.8,131,457.8,131.3z"/>
		<path fill="#1C4F82" d="M447.5,134.6c-2.7,0-5.4-0.1-8-0.4c-0.8-0.1-1.8-0.2-2.4-1c-0.7-0.8-0.7-1.9-0.7-2.6l0-6.5
			c0-0.2,0-0.4,0-0.6c0-1.6-0.1-3.8,1.9-4.9c1-0.5,2.1-0.6,3.2-0.7c4.4-0.3,8.8-0.2,13.2,0.2c1.1,0.1,2.4,0.3,3.2,1.3
			c0.9,1,0.9,2.4,0.9,3.4l0,7.8c0,0.3,0,0.5,0,0.8c-0.1,1-0.4,1.7-1,2.2c-0.6,0.5-1.4,0.6-1.9,0.6
			C453.1,134.5,450.3,134.6,447.5,134.6z M446.7,119.7c-1.7,0-3.4,0.1-5.1,0.2c-0.9,0.1-1.7,0.1-2.4,0.5c-0.9,0.5-1,1.5-0.9,3.1
			c0,0.2,0,0.5,0,0.7l0,6.5c0,0.5,0,1,0.2,1.3c0.2,0.2,0.7,0.3,1.2,0.3c5.3,0.5,10.7,0.5,15.9,0c0.3,0,0.7-0.1,0.9-0.2
			c0.2-0.1,0.3-0.4,0.3-0.9c0-0.2,0-0.4,0-0.6l0-7.8c0-0.8,0-1.6-0.4-2.1c-0.4-0.4-1.2-0.6-2-0.6
			C451.8,119.9,449.3,119.7,446.7,119.7z"/>
	</g>
	<g>
		<path fill="#F7F7F7" d="M467.8,131.3c0.1,0.6,0.2,1.2,0.7,1.5c0.4,0.3,0.9,0.4,1.4,0.4c5.4,0.6,10.8,0.6,16.1,0
			c0.7-0.1,1.4-0.2,1.8-0.7c0.5-0.5,0.5-1.2,0.5-1.9c0-2.2,0-4.3,0-6.5c0-1.7,0.3-3.7-1.4-4.7c-0.8-0.5-1.8-0.5-2.8-0.6
			c-4.3-0.3-8.7-0.2-13,0.2c-0.9,0.1-2,0.2-2.6,1c-0.6,0.7-0.7,1.8-0.7,2.7c0,2.6,0,5.2,0,7.8C467.7,130.8,467.7,131,467.8,131.3z"
			/>
		<path fill="#1C4F82" d="M478,134.6L478,134.6c-2.8,0-5.6-0.1-8.3-0.4c-0.5-0.1-1.2-0.1-1.9-0.6c-0.6-0.5-1-1.2-1-2.2
			c0-0.3,0-0.5,0-0.8l0-7.7c0-0.9,0-2.3,0.9-3.4c0.9-1,2.1-1.2,3.2-1.3c4.3-0.4,8.8-0.5,13.2-0.2c1.1,0.1,2.2,0.2,3.2,0.7
			c2,1.1,2,3.3,1.9,4.9c0,0.2,0,0.4,0,0.6l0,6.5c0,0.7,0,1.8-0.7,2.6c-0.7,0.7-1.6,0.9-2.4,1C483.4,134.5,480.7,134.6,478,134.6z
			 M478.8,119.7c-2.6,0-5.2,0.1-7.7,0.4c-0.7,0.1-1.6,0.2-2,0.6c-0.4,0.4-0.4,1.2-0.4,2.1l0,7.8c0,0.2,0,0.4,0,0.6
			c0,0.4,0.1,0.7,0.3,0.9c0.2,0.1,0.6,0.2,0.9,0.2c2.7,0.3,5.4,0.4,8.1,0.4l0,0c2.6,0,5.2-0.1,7.8-0.4c0.5,0,1-0.1,1.2-0.3
			c0.2-0.2,0.2-0.7,0.2-1.3l0-6.5c0-0.2,0-0.5,0-0.7c0-1.6,0-2.6-0.9-3.1c-0.6-0.3-1.4-0.4-2.4-0.5
			C482.3,119.8,480.5,119.7,478.8,119.7z"/>
	</g>
	<g>
		<g>
			<path fill="#1C4F82" d="M478.2,127.3c-1.7,0.3-3.2-1.2-2.9-2.9c0.2-1,1-1.7,1.9-1.9c1.7-0.3,3.2,1.2,2.9,2.9
				C479.9,126.3,479.2,127.1,478.2,127.3z"/>
		</g>
	</g>
	<g>
		<g>
			<path fill="#1C4F82" d="M448,127.3c-1.7,0.3-3.2-1.2-2.9-2.9c0.2-1,1-1.7,1.9-1.9c1.7-0.3,3.2,1.2,2.9,2.9
				C449.7,126.3,448.9,127.1,448,127.3z"/>
		</g>
	</g>
	<g>
		<path fill="#1C4F82" d="M467,125h-8c-0.6,0-1-0.4-1-1s0.4-1,1-1h8c0.6,0,1,0.4,1,1S467.6,125,467,125z"/>
	</g>
	<g>
		<path fill="#1C4F82" d="M429.7,95.2c-0.5,0-1-0.4-1-1c0-4.7,4.8-7.6,5-7.7c0.5-0.3,1.1-0.1,1.3,0.3c0.3,0.5,0.1,1.1-0.3,1.3
			c0,0-4.1,2.5-4.1,6C430.7,94.8,430.3,95.2,429.7,95.2z"/>
	</g>
	<g>
		<path fill="#1C4F82" d="M462.8,103.6c-4.9,0-8.7-4.9-9.4-5.9c-0.3-0.4-0.2-1,0.2-1.4c0.4-0.3,1-0.2,1.4,0.2
			c0.4,0.5,3.8,5.1,7.8,5.1c0.5,0,1,0.4,1,1S463.3,103.6,462.8,103.6z"/>
	</g>
</g>
<g>
	<g>
		<path fill="#1C4F82" d="M364.2,103.5c-0.1,0-0.3,0-0.4,0l-5.6-0.7c-0.5-0.1-0.9-0.6-0.9-1.1c0.1-0.5,0.6-0.9,1.1-0.9l5.6,0.7
			c0.6,0.1,1-0.3,1.1-0.9l0.9-6.9c0.1-0.5-0.1-1.1-0.4-1.5c-0.3-0.4-0.8-0.7-1.3-0.8l-28.8-3.7c-0.5-0.1-1.1,0.1-1.5,0.4
			c-0.4,0.3-0.7,0.8-0.8,1.3l-1.6,12.2c-0.1,0.5-0.6,0.9-1.1,0.9c-0.5-0.1-0.9-0.6-0.9-1.1l1.6-12.2c0.3-2.2,2.3-3.7,4.5-3.5
			l28.8,3.7c1.1,0.1,2,0.7,2.7,1.5c0.7,0.8,0.9,1.9,0.8,3l-0.9,6.9C367,102.4,365.7,103.5,364.2,103.5z"/>
	</g>
	<g>
		<path fill="#1C4F82" d="M361.6,117.3c-0.2,0-0.3,0-0.5,0l-28.8-3.7c-2.2-0.3-3.7-2.3-3.5-4.5l1.1-8.7c0.2-1.8,1.9-3,3.6-2.8
			l4.6,0.6c0.5,0.1,0.9,0.6,0.9,1.1c-0.1,0.5-0.6,0.9-1.1,0.9l-4.6-0.6c-0.7-0.1-1.3,0.4-1.4,1.1l-1.1,8.7c-0.1,1.1,0.6,2.1,1.7,2.2
			l28.8,3.7c0.5,0.1,1.1-0.1,1.5-0.4c0.4-0.3,0.7-0.8,0.8-1.3l2.2-16.9c0.1-0.5,0.6-0.9,1.1-0.9c0.5,0.1,0.9,0.6,0.9,1.1l-2.2,16.9
			c-0.1,1.1-0.7,2-1.5,2.7C363.3,117,362.4,117.3,361.6,117.3z"/>
	</g>
	<g>
		<g>
			<path fill="#1C4F82" d="M338.5,87.5c0,0-0.1,0-0.1,0c-0.5-0.1-0.9-0.6-0.9-1.1l0.9-6.9c0.1-0.5,0.6-0.9,1.1-0.9
				c0.5,0.1,0.9,0.6,0.9,1.1l-0.9,6.9C339.5,87.2,339,87.5,338.5,87.5z"/>
		</g>
		<g>
			<path fill="#1C4F82" d="M360.4,90.3c0,0-0.1,0-0.1,0c-0.5-0.1-0.9-0.6-0.9-1.1l0.5-4c0.1-0.5,0.6-0.9,1.1-0.9
				c0.5,0.1,0.9,0.6,0.9,1.1l-0.5,4C361.3,90,360.9,90.3,360.4,90.3z"/>
		</g>
		<g>
			<path fill="#1C4F82" d="M349.4,88.9c0,0-0.1,0-0.1,0c-0.5-0.1-0.9-0.6-0.9-1.1l0.4-3c0.1-0.5,0.6-0.9,1.1-0.9
				c0.5,0.1,0.9,0.6,0.9,1.1l-0.4,3C350.4,88.6,349.9,88.9,349.4,88.9z"/>
		</g>
	</g>
	<g>
		<path fill="#FFEC9C" d="M341.2,67.7c0,0,4,4.3,2.3,7.7c-1.6,3.3-7.1,1.1-4.6-3.5L341.2,67.7z"/>
	</g>
	<g>
		<path fill="#FFEC9C" d="M362.7,73.4c0,0,4,4.3,2.3,7.7c-1.6,3.3-7.1,1.1-4.6-3.5C360.4,77.5,362.7,73.4,362.7,73.4z"/>
	</g>
	<g>
		<path fill="#F9C441" d="M340.3,76.6c-1.2,0-2.4-0.7-3-1.7c-0.4-0.7-1-2.3,0.2-4.5l2.2-4.2c0.2-0.4,0.6-0.5,1-0.3
			c0.1,0,0.2,0.1,0.2,0.2c1,1.2,4.1,5.1,2.4,8.5C342.8,75.9,341.6,76.6,340.3,76.6z M340.5,67.9l-1.7,3.2c-0.6,1.2-0.7,2.2-0.3,3
			c0.4,0.6,1,1,1.8,1c0.8,0,1.4-0.4,1.8-1.2C343,71.9,341.5,69.3,340.5,67.9z"/>
	</g>
	<g>
		<path fill="#F9C441" d="M361.7,82.3c-1.2,0-2.4-0.7-3-1.7c-0.4-0.7-1-2.3,0.2-4.5c0,0,2.2-4.1,2.2-4.2c0.2-0.3,0.5-0.5,0.8-0.4
			c0.2,0,0.3,0.1,0.4,0.3c1,1.2,4.1,5.1,2.4,8.5C364.2,81.5,363.1,82.3,361.7,82.3z M361.9,73.6c-0.3,0.6-0.9,1.6-1.7,3.2
			c-0.6,1.2-0.7,2.2-0.3,3c0.4,0.6,1,1,1.8,1c0.8,0,1.4-0.4,1.8-1.2C364.5,77.6,363,75,361.9,73.6z"/>
	</g>
	<g>
		<path fill="#FFEC9C" d="M351.3,71.9c0,0,4,4.3,2.3,7.7c-1.6,3.3-7.1,1.1-4.6-3.5L351.3,71.9z"/>
	</g>
	<g>
		<path fill="#F9C441" d="M350.3,80.8c-1.2,0-2.4-0.7-3-1.7c-0.4-0.7-1-2.3,0.2-4.5l2.2-4.2v0c0,0,0,0,0,0c0.2-0.3,0.7-0.5,1-0.3
			c0.1,0,0.2,0.1,0.2,0.2c1,1.2,4.1,5.1,2.4,8.5C352.8,80.1,351.7,80.8,350.3,80.8z M350.5,72.1l-1.7,3.2c-0.6,1.2-0.7,2.2-0.3,3
			c0.4,0.6,1,1,1.8,1c0.8,0,1.4-0.4,1.8-1.2C353.1,76.1,351.6,73.5,350.5,72.1z"/>
	</g>
	<g>
		<path fill="#1C4F82" d="M344.9,108.5c0,0-0.1,0-0.1,0l-13.9-1.8c-0.5-0.1-0.9-0.6-0.9-1.1c0.1-0.5,0.6-0.9,1.1-0.9l13.9,1.8
			c0.5,0.1,0.9,0.6,0.9,1.1C345.8,108.2,345.4,108.5,344.9,108.5z"/>
	</g>
</g>
<g>
	<g>
		<g>
			<circle fill="#DFEDFC" cx="92.1" cy="115.6" r="43.8"/>
			<path fill="#1C4F82" d="M92.1,160.2c-24.6,0-44.7-20-44.7-44.7c0-24.6,20-44.7,44.7-44.7c24.6,0,44.7,20,44.7,44.7
				C136.7,140.2,116.7,160.2,92.1,160.2z M92.1,72.5c-23.7,0-43,19.3-43,43c0,23.7,19.3,43,43,43c23.7,0,43-19.3,43-43
				C135.1,91.8,115.8,72.5,92.1,72.5z"/>
		</g>
		<g>
			<g>
				<path fill="#FFFFFF" d="M104.8,61.8c-1.1-0.5-2.3-0.9-3.6-1.3c-9.3-3-41.7-4.6-44.7,23.1c-1.3,12.6-0.2,54.4,3.4,54.4
					s5.6-3.6,5.6-3.6l0-1.2c2.4,5.6,5.8,9.6,10.8,12.9c9.1,6,19.7,6.2,28.6,1.1c4.2-2.4,8.6-6.5,11.8-13.5l-0.4-0.1
					c0,0,3.9,4.4,6.8,4.4c2.9,0,8-51.7,2.7-65.2c-3.1-7.8-9.5-13.9-21.2-11.1L104.8,61.8z"/>
			</g>
			<g>
				<path fill="#1C4F82" d="M91,134.2c-5,0-8.1-1.2-10.7-4.3c-0.3-0.4-0.3-1,0.1-1.4c0.4-0.3,1-0.3,1.4,0.1c2.2,2.6,4.7,3.6,9.2,3.6
					c4.8,0,8.3-1.7,9.4-3.5c0.3-0.5,0.9-0.6,1.3-0.3s0.6,0.9,0.3,1.3C100.4,132.4,96,134.2,91,134.2z"/>
			</g>
			<g>
				<path fill="#1C4F82" d="M91.6,151.8c-5.4,0-10.9-1.6-15.8-4.9c-9.4-6.2-13.7-15.3-15-31.4c-0.7-8.7-0.6-13-0.6-13.2
					c0-7.3,3.1-7.3,10-7.4c1.9,0,4.1-0.1,6.7-0.2c21.7-1.3,35.1-4.8,40-10.3c1.4-1.6,2.1-3.4,1.9-5.4c0-0.5,0.4-1,0.9-1
					c0.5,0,1,0.4,1,0.9c0.2,2.5-0.7,4.8-2.4,6.8c-1.9,2.2-5.1,4.1-9.5,5.7c2.8,3.1,5.3,4.6,7.4,5.9c2.9,1.8,5.2,3.2,6.1,7.5
					c0.3,1.5,0.2,7.2-0.5,13.1c-2.1,18.5-10.1,26.6-16.4,30.2C101.1,150.5,96.3,151.8,91.6,151.8z M106.9,92
					c-7.2,2.3-17.2,3.8-29.9,4.6c-2.7,0.2-4.9,0.2-6.8,0.2c-6.9,0.1-8.1,0.1-8.1,5.5c0,0.1,0,4.4,0.6,13c1.2,15.6,5.2,24,14.1,29.9
					c8.5,5.6,18.8,6.1,27.6,1.1c5.9-3.4,13.4-11.1,15.5-28.7c0.7-6.3,0.7-11.5,0.5-12.5c-0.7-3.4-2.4-4.5-5.3-6.2
					C113,97.5,110.1,95.7,106.9,92z"/>
			</g>
			<g>
				<path fill="#1C4F82" d="M59.9,138.9c-0.3,0-0.8-0.1-1.3-0.7c-3.7-4.6-5.3-45.7-3-56.8C59,65.7,67.6,58.9,74.2,56
					c10.7-4.7,22.7-2.5,29.5,1.5c5.7,3.4,6.9,6.6,6.9,8.8c0,0.5-0.4,1-1,1s-1-0.4-1-1c0-2.3-2.1-4.8-5.9-7.1
					C96.4,55.4,85,53.4,75,57.8c-8.9,3.9-14.9,12.2-17.4,24c-2.6,12.5-0.2,52.2,2.5,55.2c2.9-0.1,4.6-3.1,4.6-3.1
					c0.3-0.5,0.8-0.6,1.3-0.4c0.5,0.3,0.6,0.8,0.4,1.3C66.3,135,64.1,138.9,59.9,138.9z"/>
			</g>
			<g>
				<path fill="#1C4F82" d="M123.1,138.9c-3.2,0-7.1-4.2-7.5-4.7l1.5-1.3c1.3,1.5,3.9,3.8,5.7,4c1-1.8,2.9-12.8,3.9-28.1
					c1-17,0.4-30.3-1.8-35.8c-3.2-8-10.4-15.7-21.1-13.2l-0.4-1.9c11.9-2.8,19.9,5.6,23.3,14.4c5.2,13,0.9,61-2.4,65.8
					C123.9,138.8,123.4,138.9,123.1,138.9z"/>
			</g>
			<g>
				<path fill="#1C4F82" d="M108.9,111.1c-0.4,0-0.8-0.2-0.9-0.6c-0.6-1.7-1.5-2.4-2.9-2.4c-1.4,0-2.3,0.8-2.9,2.4
					c-0.2,0.5-0.7,0.7-1.2,0.6c-0.5-0.2-0.8-0.7-0.6-1.2c0.9-2.4,2.5-3.7,4.7-3.7c1.5,0,3.6,0.6,4.7,3.7c0.2,0.5-0.1,1.1-0.6,1.2
					C109.1,111,109,111.1,108.9,111.1z"/>
			</g>
			<g>
				<path fill="#1C4F82" d="M80.8,111.1c-0.4,0-0.8-0.2-0.9-0.6c-0.6-1.7-1.5-2.4-2.9-2.4c-1.4,0-2.3,0.8-2.9,2.4
					c-0.2,0.5-0.7,0.7-1.2,0.6c-0.5-0.2-0.8-0.7-0.6-1.2c0.9-2.4,2.5-3.7,4.7-3.7c1.5,0,3.6,0.6,4.7,3.7c0.2,0.5-0.1,1.1-0.6,1.2
					C81.1,111,81,111.1,80.8,111.1z"/>
			</g>
		</g>
		<g>
			<path fill="#1C4F82" d="M105,88.2c-0.5,0-0.9-0.4-1-0.9c-0.1-0.5,0.3-1,0.9-1.1c4.5-0.5,6.6-2.3,8.7-5.2c0.3-0.4,0.9-0.5,1.4-0.2
				s0.5,0.9,0.2,1.4c-2.4,3.3-4.9,5.4-10.1,6C105.1,88.2,105,88.2,105,88.2z"/>
		</g>
		<g>
			<path fill="#1C4F82" d="M63.2,79.1c-0.1,0-0.1,0-0.2,0c-0.5-0.1-0.9-0.6-0.8-1.1c1.3-7.6,9.1-10.8,9.4-10.9
				c0.5-0.2,1.1,0,1.3,0.5c0.2,0.5,0,1.1-0.5,1.3c-0.1,0-7.1,2.9-8.2,9.4C64.1,78.8,63.7,79.1,63.2,79.1z"/>
		</g>
	</g>
</g>
<g>
	<g>
		<path fill="#FFFEFD" d="M570.5,247.8l-51.4-8.1c-2.2-0.3-3.7-2.4-3.3-4.6l10.9-68.6c0.3-2.2,2.4-3.7,4.6-3.3l51.4,8.1
			c2.2,0.3,3.7,2.4,3.3,4.6l-10.9,68.6C574.7,246.6,572.7,248.1,570.5,247.8z"/>
		<path fill="#FFFFFF" d="M571.1,248.8c-0.3,0-0.5,0-0.8-0.1l-51.4-8.1c-1.3-0.2-2.5-0.9-3.3-2s-1.1-2.4-0.9-3.7l10.9-68.6
			c0.4-2.7,2.9-4.6,5.7-4.2l51.4,8.1c2.7,0.4,4.6,3,4.2,5.7l-10.9,68.6C575.7,247,573.6,248.8,571.1,248.8z M530.5,164.1
			c-1.5,0-2.7,1.1-3,2.5l-10.9,68.6c-0.1,0.8,0.1,1.6,0.5,2.2s1.2,1.1,2,1.2l51.4,8.1c1.7,0.3,3.2-0.9,3.4-2.5l10.9-68.6
			c0.3-1.6-0.9-3.2-2.5-3.4l-51.4-8.1C530.8,164.1,530.7,164.1,530.5,164.1z"/>
	</g>
	<g>
		<path fill="#FFFFFF" d="M570.5,247.8l-51.4-8.1c-2.2-0.3-3.7-2.4-3.3-4.6l10.9-68.6c0.3-2.2,2.4-3.7,4.6-3.3l51.4,8.1
			c2.2,0.3,3.7,2.4,3.3,4.6l-10.9,68.6C574.7,246.6,572.7,248.1,570.5,247.8z"/>
		<path fill="#1C4F82" d="M571.1,248.8c-0.3,0-0.5,0-0.8-0.1l-51.4-8.1c-1.3-0.2-2.5-0.9-3.3-2s-1.1-2.4-0.9-3.7l10.9-68.6
			c0.4-2.7,2.9-4.6,5.7-4.2l51.4,8.1c2.7,0.4,4.6,3,4.2,5.7l-10.9,68.6C575.7,247,573.6,248.8,571.1,248.8z M530.5,164.1
			c-1.5,0-2.7,1.1-3,2.5l-10.9,68.6c-0.1,0.8,0.1,1.6,0.5,2.2s1.2,1.1,2,1.2l51.4,8.1c1.7,0.3,3.2-0.9,3.4-2.5l10.9-68.6
			c0.3-1.6-0.9-3.2-2.5-3.4l-51.4-8.1C530.8,164.1,530.7,164.1,530.5,164.1z"/>
	</g>
	<g>
		<path fill="#1C4F82" d="M572.4,164.6L572.4,164.6c0.9,0.1,1.6,1,1.4,2l-0.3,1.6c-0.1,0.9-1,1.6-2,1.4l0,0c-0.9-0.1-1.6-1-1.4-2
			l0.3-1.6C570.6,165,571.5,164.4,572.4,164.6z"/>
	</g>
	<g>
		<path fill="#1C4F82" d="M542.9,159.9L542.9,159.9c0.9,0.1,1.6,1,1.4,2l-0.3,1.6c-0.1,0.9-1,1.6-2,1.4l0,0c-0.9-0.1-1.6-1-1.4-2
			l0.3-1.6C541.1,160.4,542,159.7,542.9,159.9z"/>
	</g>
	<g>
		<path fill="#1C4F82" d="M575.2,197.1c-0.1,0-0.1,0-0.2,0l-43.5-6.9c-0.5-0.1-0.9-0.6-0.8-1.1c0.1-0.5,0.6-0.9,1.1-0.8l43.5,6.9
			c0.5,0.1,0.9,0.6,0.8,1.1C576.1,196.7,575.7,197.1,575.2,197.1z"/>
	</g>
	<g>
		<path fill="#1C4F82" d="M573.6,206.9c-0.1,0-0.1,0-0.2,0L530,200c-0.5-0.1-0.9-0.6-0.8-1.1c0.1-0.5,0.6-0.9,1.1-0.8l43.5,6.9
			c0.5,0.1,0.9,0.6,0.8,1.1C574.5,206.6,574.1,206.9,573.6,206.9z"/>
	</g>
	<g>
		<path fill="#1C4F82" d="M572.2,215.8c-0.1,0-0.1,0-0.2,0l-43.5-6.9c-0.5-0.1-0.9-0.6-0.8-1.1c0.1-0.5,0.6-0.9,1.1-0.8l43.5,6.9
			c0.5,0.1,0.9,0.6,0.8,1.1C573.1,215.5,572.7,215.8,572.2,215.8z"/>
	</g>
	<g>
		<g>
			<path fill="#61C1F9" d="M533,223l-2.7,4.8c-1,1.8,0.6,4,2.6,3.6l5.4-1.1l53.6-38.9c1.2-0.9,1.5-2.5,0.6-3.7l-2.1-3
				c-0.9-1.2-2.5-1.5-3.7-0.6L533,223z"/>
		</g>
		<g>
			<path fill="#FFFFFF" d="M591.9,191.3c1.2-0.9,1.5-2.5,0.6-3.7l-2.1-3c-0.9-1.2-2.5-1.5-3.7-0.6l-1.5,1.1l5.3,7.3L591.9,191.3z"/>
		</g>
		<g>
			<path fill="#FFFFFF" d="M539.8,229.2l-1.5,1.1l-5.4,1.1c-2,0.4-3.6-1.8-2.6-3.6l2.7-4.8l1.5-1.1L539.8,229.2z"/>
		</g>
		<g>
			<path fill="#1C4F82" d="M532.4,232.4L532.4,232.4c-1.2,0-2.3-0.7-2.9-1.7c-0.6-1.1-0.6-2.3,0-3.4l2.7-4.8
				c0.1-0.1,0.2-0.2,0.3-0.3l53.6-38.9c0.6-0.5,1.4-0.7,2.2-0.7c1.2,0,2.3,0.6,3,1.5l2.2,3c1.2,1.6,0.8,3.9-0.8,5.1l-53.6,38.9
				c-0.1,0.1-0.2,0.1-0.4,0.2l-5.4,1.1C532.9,232.4,532.7,232.4,532.4,232.4z M533.8,223.7l-2.6,4.6c-0.3,0.5-0.3,1,0,1.4
				c0.3,0.4,0.7,0.7,1.2,0.7c0,0,0,0,0,0c0.1,0,0.2,0,0.3,0l5.2-1l53.4-38.8c0.7-0.5,0.9-1.6,0.4-2.3l-2.1-3
				c-0.5-0.7-1.6-0.9-2.3-0.4L533.8,223.7z"/>
		</g>
	</g>
	<g>
		<path fill="#1C4F82" d="M584.6,182.3c-0.1,0-0.1,0-0.2,0l-58.3-9.2c-0.5-0.1-0.9-0.6-0.8-1.1c0.1-0.5,0.6-0.9,1.1-0.8l58.3,9.2
			c0.5,0.1,0.9,0.6,0.8,1.1C585.5,182,585.1,182.3,584.6,182.3z"/>
	</g>
	<g>
		<path fill="#1C4F82" d="M582.4,252.9c-0.2,0-0.4,0-0.5-0.1l-3.9-2.4c-0.5-0.3-0.6-0.9-0.3-1.4c0.3-0.5,0.9-0.6,1.4-0.3l3.9,2.4
			c0.5,0.3,0.6,0.9,0.3,1.4C583.1,252.7,582.8,252.9,582.4,252.9z"/>
	</g>
	<g>
		<path fill="#1C4F82" d="M576,259c-0.4,0-0.8-0.2-0.9-0.6l-1.8-4.2c-0.2-0.5,0-1.1,0.5-1.3c0.5-0.2,1.1,0,1.3,0.5l1.8,4.2
			c0.2,0.5,0,1.1-0.5,1.3C576.3,259,576.2,259,576,259z"/>
	</g>
</g>
<g>
	<g>
		<g>
			<path fill="#F5FAFC" d="M29.4,80.2c-0.5,0-1,0.1-1.5,0.1c-11.3,0-20.5-8.3-20.5-18.4s9.2-18.4,20.5-18.4s20.5,8.3,20.5,18.4
				c0,3.9-1.4,7.7-3.9,10.8c-1.2,1.5-2.7,2.8-4.4,4c-0.8,0.6-1.7,1.1-2.6,1.5c-0.2,0.1-0.3,0.1-0.5,0.2c-0.2,0.1-0.6,0.2-0.6,0.3
				c0,0,0,0.1,0.1,0.3c0.8,1.5,2.5,4.2,5.1,4.5c0.6,0.1,1,0.5,1,1.1c0,0.6-0.3,1.1-0.8,1.2c-1,0.3-2,0.5-2.9,0.5
				C34.5,86.1,31.4,82.8,29.4,80.2z"/>
			<path fill="#52B3F7" d="M38.9,87.1c-5.1,0-8.6-4.1-10-5.9c-0.3,0-0.7,0-1,0C16,81.2,6.3,72.5,6.3,61.8S16,42.3,27.9,42.3
				S49.4,51,49.4,61.8c0,4.1-1.5,8.1-4.1,11.4c-1.3,1.6-2.8,3-4.6,4.2c-0.9,0.6-1.8,1.1-2.8,1.6c-0.1,0-0.1,0.1-0.2,0.1
				c0.8,1.4,2.2,3.1,4,3.3c1,0.1,1.8,0.9,1.9,2c0.1,1-0.5,2-1.5,2.3C41,87,39.9,87.1,38.9,87.1z M29.4,79.2c0.3,0,0.6,0.1,0.8,0.4
				c1.8,2.4,4.7,5.6,8.7,5.6c0.9,0,1.7-0.1,2.6-0.4c0.1,0,0.1-0.1,0.1-0.2c0-0.1-0.1-0.1-0.2-0.2c-3.1-0.4-5-3.3-5.9-5.1
				c-0.2-0.3-0.2-0.6-0.2-0.8c0-0.3,0.1-0.5,0.3-0.7c0.2-0.2,0.4-0.3,0.9-0.5c0.2-0.1,0.3-0.1,0.5-0.2c0.9-0.4,1.7-0.9,2.5-1.4
				c1.6-1.1,3-2.3,4.1-3.8c2.4-2.9,3.7-6.5,3.7-10.2c0-9.6-8.8-17.4-19.5-17.4S8.3,52.2,8.3,61.8s8.8,17.4,19.5,17.4
				C28.3,79.2,28.8,79.2,29.4,79.2C29.3,79.2,29.3,79.2,29.4,79.2z"/>
		</g>
	</g>
	<g>
		<path fill="#52B3F7" d="M31.6,75c-0.2,0-0.3,0-0.5,0c-0.6,0-1-0.5-1-1s0.5-1,1-1c3.4,0.2,6.9-1.7,8.6-4.7c0.3-0.5,0.9-0.6,1.4-0.4
			c0.5,0.3,0.6,0.9,0.4,1.4C39.5,72.7,35.6,75,31.6,75z"/>
	</g>
	<g>
		<path fill="#52BAFA" d="M31,63.4c-0.6,0-1.2-0.1-1.6-0.3s-0.8-0.5-1.1-0.8c-0.3,0.3-0.6,0.5-0.9,0.7c-0.3,0.2-0.6,0.2-0.9,0.2
			c-0.7,0-1.3-0.3-1.8-0.8c-0.6-0.5-0.9-1.1-0.9-1.7c0-1.1,0.4-2.1,1.3-3c0.9-0.9,1.8-1.3,2.9-1.3c0.2,0,0.5,0.1,0.6,0.3
			s0.2,0.4,0.2,0.7c0,0.4-0.3,0.6-0.9,0.8c-0.8,0.2-1.3,0.5-1.7,0.8c-0.5,0.4-0.7,1-0.7,1.8c0,0.2,0.1,0.3,0.2,0.5
			c0.2,0.2,0.4,0.3,0.7,0.2c0.5,0,1-0.5,1.4-1.4c0.4-0.8,0.7-1.2,1-1.2c0.2,0,0.4,0.1,0.6,0.3s0.2,0.4,0.2,0.7c0,0.1,0,0.3-0.1,0.5
			c0,0.2-0.1,0.4-0.1,0.5c0,0.4,0.2,0.6,0.5,0.7c0.1,0,0.4,0.1,0.8,0.1c0.8,0,1.4-0.2,1.7-0.6c0.3-0.4,0.4-0.9,0.4-1.7
			c0-1.4-0.6-2.6-1.7-3.5c-1.1-0.8-2.3-1.2-3.8-1.2c-1.7,0-3,0.6-4,1.9c-0.9,1.1-1.3,2.6-1.3,4.3c0,1.6,0.5,3,1.5,4.1
			c1.1,1.1,2.4,1.7,4.1,1.7c0.5,0,1-0.1,1.6-0.3l1.5-0.6c0.3-0.1,0.4-0.1,0.5-0.1c0.2,0,0.4,0.1,0.6,0.3s0.3,0.4,0.3,0.7
			c0,0.6-0.6,1-1.9,1.4c-0.9,0.3-1.8,0.4-2.6,0.4c-0.8,0-1.7-0.2-2.5-0.5s-1.6-0.7-2.2-1.3c-1.8-1.6-2.7-3.5-2.7-5.7
			s0.6-4.1,1.9-5.6c1.3-1.6,3.1-2.4,5.3-2.4c2,0,3.7,0.6,5.1,1.8c1.5,1.3,2.2,2.9,2.2,4.8c0,1.3-0.3,2.3-1,3
			C33.2,63,32.3,63.4,31,63.4z"/>
	</g>
</g>
<g>
	<g>
		<path fill="#FFFFFF" d="M244.1,158.5l-66,11.6c-1.6,0.3-3.2-0.8-3.5-2.4L161,90.6c-0.3-1.6,0.8-3.2,2.4-3.5l66-11.6
			c1.6-0.3,3.2,0.8,3.5,2.4l13.6,77.2C246.8,156.7,245.7,158.2,244.1,158.5z"/>
		<path fill="#1C4F82" d="M177.6,171.3c-2,0-3.6-1.4-4-3.4L160,90.7c-0.4-2.2,1.1-4.3,3.3-4.7l66-11.6c2.2-0.4,4.3,1.1,4.7,3.3
			l13.6,77.2c0.2,1.1-0.1,2.1-0.7,3c-0.6,0.9-1.6,1.5-2.6,1.7l-66,11.6C178.1,171.2,177.8,171.3,177.6,171.3z M230,76.5
			c-0.1,0-0.2,0-0.3,0l-66,11.6c-1.1,0.2-1.8,1.2-1.6,2.3l13.6,77.2c0.2,1,1.2,1.8,2.3,1.6l66-11.6c0.5-0.1,1-0.4,1.3-0.8
			c0.3-0.4,0.4-0.9,0.3-1.5l-13.6-77.2C231.7,77.1,230.9,76.5,230,76.5z"/>
	</g>
	<g>
		<path fill="#61C1F9" d="M234.4,120.2c-1.9-1.1-4.5-2.6-6.4-2.9c-0.8-0.1-1.5,0.2-1.9,0.4c-1.1,0.6-2.6,3.6-5.3,6.2l-0.4-0.3
			c-4.4-1.7-8.6-5-12.7-7.4c-1.8-1.1-3.6-0.5-4.6,1c-1,1.4-1.7,2.6-2.6,3.9l-0.3-0.1c-1.5-1-4.1-1.9-5.8,0.4c-2.9,3.7-5.8,12-5.8,12
			s-1.9-2.6-4.5-3.6c-0.8-0.3-2.8-0.7-4.4,1.5c-1.4,2-3.7,5.3-5.2,8.3l-0.3,0.1l2.6,14.6c0.2,1.1,1.7,1.7,2.8,1.5l57.7-10.2
			c1.1-0.2,1.7-1.1,1.5-2.2l-4-22.7L234.4,120.2z"/>
	</g>
	<g>
		<path fill="#F7F7F7" d="M235.7,128.1c-4.7,0.7-8.2,4.3-12.1,7.2l-0.5,0.3c-9.4-0.4-17.3-1.2-25.6,4.2l0,0.4
			c-5.9-0.4-11.8-0.2-16.8,2.8c-1.7,1-3.2,2.3-4.4,3.9l-0.5,0.7l0.9,5c0.3,1.5,1.6,2.5,3,2.2l56.4-9.9c1.4-0.3,2.9-1.7,2.6-3.2
			l-2.4-13.5L235.7,128.1z"/>
	</g>
	<g>
		<path fill="#FFEC9C" d="M204.9,100.1c0.3,0.5,0.6,1.1,0.8,1.7c0.5,1.4,0.9,2.9,0.7,4.4c-0.6,6.4-12.2,10.6-16.7,5.9
			c-1.4-1.4-1.9-3.4-2-5.4c-0.2-6.1,3.2-9.8,9.2-10.3C200.3,96,203.2,97.4,204.9,100.1z"/>
	</g>
	<g>
		<path fill="#1C4F82" d="M174.8,139.4c-0.1,0-0.3,0-0.4-0.1c-0.5-0.2-0.7-0.8-0.5-1.3c1.8-3.7,4.3-7.4,5-8.4c2-2.9,4.8-2.2,5.6-1.9
			c1.6,0.6,2.9,1.7,3.7,2.6c1-2.6,3.1-7.8,5.3-10.7c2-2.6,5.1-1.9,7.2-0.6c0.5,0.3,0.6,0.9,0.3,1.4c-0.3,0.5-0.9,0.6-1.4,0.3
			c-0.7-0.4-3-1.8-4.5,0.1c-2.7,3.6-5.6,11.6-5.6,11.7c-0.1,0.4-0.4,0.6-0.8,0.7c-0.4,0-0.7-0.1-1-0.4c0,0-1.8-2.4-4-3.2
			c-0.7-0.3-2.1-0.5-3.2,1.2c-0.7,1-3.1,4.6-4.8,8.1C175.5,139.2,175.2,139.4,174.8,139.4z"/>
	</g>
	<g>
		<path fill="#1C4F82" d="M220.3,123.6c-0.1,0-0.2,0-0.4-0.1c-3.1-1.2-6-3.2-8.9-5c-1.3-0.9-2.6-1.7-3.9-2.5
			c-1.2-0.7-2.4-0.5-3.2,0.7c-1.1,1.5-1.9,2.8-2.8,4.2l-0.6,0.9c-0.3,0.5-0.9,0.6-1.4,0.3c-0.5-0.3-0.6-0.9-0.3-1.4l0.6-0.9
			c1-1.5,1.8-2.7,2.9-4.3c1.4-2,3.8-2.5,5.9-1.3c1.3,0.8,2.7,1.7,4,2.5c2.8,1.8,5.7,3.7,8.6,4.8c0.5,0.2,0.8,0.8,0.6,1.3
			C221,123.3,220.7,123.6,220.3,123.6z"/>
	</g>
	<g>
		<g>
			<path fill="#F9C441" d="M203.3,99.1c2.5,4.4,1.8,8.9-2.6,11.6c-3,1.8-7.4,2.9-10.7,1.3c-4.7-2.4-4.3-10.3-1-13.7
				C193,94.3,200,94.6,203.3,99.1c0.8,1,2.5,0,1.7-1c-3.8-5.2-11-6.1-16.2-2.3c-4.6,3.4-5.9,11.4-2.2,15.9
				c3.5,4.3,10.4,3.4,14.7,0.9c5.6-3.2,6.9-8.9,3.7-14.5C204.4,97,202.7,98,203.3,99.1z"/>
		</g>
	</g>
	<g>
		<path fill="#1C4F82" d="M217.4,126.2c-0.4,0-0.7-0.2-0.9-0.5c-0.3-0.5-0.1-1.1,0.4-1.4c2.9-1.6,4.9-4.2,6.3-6.1
			c0.9-1.2,1.5-2.1,2.2-2.5c0.3-0.2,1.4-0.7,2.6-0.5c2,0.3,4.6,1.7,6.8,3c0.5,0.3,0.6,0.9,0.4,1.4c-0.3,0.5-0.9,0.6-1.4,0.4
			c-1.9-1.1-4.4-2.5-6.1-2.8c-0.5-0.1-1,0.1-1.3,0.3c-0.3,0.2-1,1.1-1.6,1.9c-1.4,1.9-3.6,4.9-6.9,6.7
			C217.7,126.2,217.6,126.2,217.4,126.2z"/>
	</g>
	<g>
		<path fill="#FFFFFF" d="M170.1,110.9c7.1-1.1,22.6-3.8,29.7-4.9c3.4-0.5,3.6-2.6,3.4-3.4s-0.7-2-2.3-2.4s-4.3,0.1-6,0.3
			c-1.8,0.3-3.7,0.6-5.5,0.9c-0.2,0-0.5,0.1-0.8,0c-0.8-0.2-1-1.2-1.3-2c-0.5-1.5-1.9-2.7-3.4-3.2c-1.5-0.5-3.2-0.4-4.8-0.1
			c-1.8,0.3-3.6,1-4.9,2.2c-1.4,1.2-2.2,3.1-1.9,4.9c0,0,0.1,0.9,0.4,0.9"/>
	</g>
	<g>
		<path fill="#1C4F82" d="M170.1,111.9c-0.5,0-0.9-0.4-1-0.8c-0.1-0.5,0.3-1.1,0.8-1.1c3.5-0.6,9.2-1.5,14.8-2.4
			c5.7-0.9,11.3-1.9,14.9-2.5c1.1-0.2,1.9-0.6,2.3-1.1c0.3-0.5,0.3-1,0.3-1.1c-0.2-0.9-0.7-1.4-1.6-1.6c-1.4-0.3-4,0.1-5.6,0.3
			l-5.5,0.9c-0.3,0-0.7,0.1-1.1,0c-1.3-0.3-1.6-1.5-1.9-2.4c0-0.1-0.1-0.2-0.1-0.4c-0.4-1.1-1.4-2.1-2.8-2.5
			c-1.2-0.4-2.6-0.4-4.3-0.1c-1.9,0.4-3.4,1-4.5,2c-1.2,1.1-1.8,2.6-1.6,4c0,0.1,0,0.2,0.1,0.3c0.2,0.2,0.4,0.5,0.3,0.9
			c-0.1,0.5-0.6,0.9-1.1,0.9c-0.5-0.1-1.1-0.4-1.2-1.8c-0.3-2,0.6-4.2,2.3-5.7c1.3-1.2,3.2-2,5.4-2.4c2-0.4,3.8-0.3,5.3,0.2
			c2,0.6,3.5,2.1,4.1,3.8c0,0.1,0.1,0.3,0.1,0.4c0.1,0.2,0.3,0.9,0.4,1c0.1,0,0.3,0,0.4,0l5.5-0.9c1.8-0.3,4.6-0.7,6.4-0.3
			c1.7,0.4,2.8,1.6,3.1,3.2c0.1,0.4,0.2,1.5-0.6,2.6c-0.7,1-2,1.7-3.7,1.9c-3.5,0.6-9.2,1.5-14.8,2.4c-5.7,0.9-11.3,1.9-14.9,2.5
			C170.2,111.9,170.2,111.9,170.1,111.9z"/>
	</g>
	<g>
		<path fill="#1C4F82" d="M176.6,147.7c-0.2,0-0.5-0.1-0.7-0.3c-0.4-0.4-0.4-1-0.1-1.4c1.1-1.3,2.5-2.4,4.2-3.3
			c6.9-3.9,15.3-3.1,22.1-2.5c0.6,0,1,0.5,0.9,1.1c0,0.5-0.5,1-1.1,0.9c-6.5-0.6-14.6-1.3-21,2.3c-1.4,0.8-2.7,1.8-3.7,2.9
			C177.2,147.6,176.9,147.7,176.6,147.7z"/>
	</g>
	<g>
		<path fill="#1C4F82" d="M197.4,141.5c-0.3,0-0.7-0.2-0.9-0.5c-0.3-0.5-0.1-1.1,0.3-1.4c8-4.9,15.4-4.7,24-4.4l2.2,0.1
			c0.6,0,1,0.5,1,1c0,0.6-0.4,1-1,1l-2.2-0.1c-8.3-0.2-15.5-0.4-22.9,4.1C197.8,141.4,197.6,141.5,197.4,141.5z"/>
	</g>
	<g>
		<path fill="#1C4F82" d="M212,141c-0.5,0-0.9-0.4-1-0.9c-0.1-0.5,0.3-1,0.9-1.1c2.2-0.2,4.8-0.6,7.1-1.6c2.3-1,4.4-2.6,6.4-4.1
			c3-2.3,6.1-4.6,10-5.2c0.5-0.1,1.1,0.3,1.1,0.8c0.1,0.5-0.3,1.1-0.8,1.1c-3.4,0.5-6.2,2.6-9.1,4.8c-2.1,1.6-4.3,3.3-6.9,4.3
			c-2.6,1.1-5.3,1.5-7.7,1.7C212.1,141,212,141,212,141z"/>
	</g>
	<g>
		<path fill="#1C4F82" d="M179.3,155.8c-1.5,0-2.7-1-3-2.5l-10.2-58.1c-0.1-0.8,0-1.6,0.5-2.2c0.5-0.7,1.1-1.1,1.9-1.2l57.7-10.2
			c1.7-0.3,3.2,0.8,3.5,2.4l10.2,58.1c0.3,1.6-0.8,3.2-2.4,3.5l-57.7,10.2C179.7,155.8,179.5,155.8,179.3,155.8z M226.8,83.5
			c-0.1,0-0.1,0-0.2,0l-57.7,10.2c-0.3,0-0.5,0.2-0.6,0.4c-0.2,0.2-0.2,0.5-0.2,0.7l10.2,58.1c0.1,0.5,0.6,0.9,1.2,0.8l57.7-10.2
			c0.5-0.1,0.9-0.6,0.8-1.2l-10.2-58.1C227.7,83.9,227.3,83.5,226.8,83.5z"/>
	</g>
	<g>
		<path fill="#1C4F82" d="M169.4,107.2c-0.3,0-0.6-0.1-0.8-0.4c-0.3-0.4-0.2-1.1,0.2-1.4c0.2-0.2,0.5-0.4,0.7-0.6
			c0.9-0.7,1.9-1.4,3-2c1.6-0.8,4-1.1,5.8,0.1c0.5,0.3,0.6,0.9,0.2,1.4c-0.3,0.5-0.9,0.6-1.4,0.2c-1.1-0.8-2.7-0.5-3.8,0
			c-0.9,0.4-1.8,1.1-2.7,1.7c-0.3,0.2-0.5,0.4-0.8,0.6C169.9,107.1,169.7,107.2,169.4,107.2z"/>
	</g>
</g>
</svg>
