<svg xmlns="http://www.w3.org/2000/svg" viewBox="0 0 50 101">

		<path fill="url(#gradient)" d="M38.6,58C38.6,58,38.6,58,38.6,58c-0.7-4.3-0.2-7.5,1.5-9.3l1.6,2c0.1,0.1,0.2,0.1,0.3,0.1c0.1,0,0.2,0,0.3-0.1
		c1.2-1.3,2.3-3.9,2.1-7.6c-0.2-2.3-0.9-4.2-2-5.2c-0.2-0.1-0.4-0.1-0.5,0l-2,2.3c-2.2-2.6-1.2-4.4-0.1-6.7c0.3-0.6,0.6-1.2,0.9-1.9
		c2.6-5.9,4.6-12.8-0.4-19.6c-3.4-4.6-7.9-6.9-13.4-6.9c-1.6,0-3.4,0.2-5.1,0.6c-0.2-1.1-0.8-3.8-2.5-3.8c-0.4,0-0.8,0.1-1.1,0.4
		c-0.9,0.7-1.3,4-1.3,5.1c-0.6,0.7-4,4.4-5.3,6.3c-0.3,0.5-0.6,1.3-0.6,1.8c0,0.5,0,1.1,0,1.6c0,1.1,0,2.3-0.2,2.8
		c-0.2,0.7-1.8,2.1-4.1,3.6c-0.5,0.3-1,1-1,1.5c0.1,2.8,2.7,4.4,5.1,4.4c0.7,0,1.4-0.2,1.8-0.4c1.1-0.7,1.6-1.6,1.7-2.9l2-2.2
		c0.4,0,1.4,0.1,2.7,0.1c2.3,0,4.1-0.3,5.1-0.9c1.9-1,2.8-2.3,3.6-4.3l0.3,0.2c-0.6,4.2-3.1,7.8-5.9,11.6c-3.2,4.5-6.6,9.2-6.3,15.1
		c0.3,7.2,4.7,12.2,9.2,16.9l0.1,0c2.2,2.3,4.4,4.6,6.1,6.9c3.7,5.2,4.3,9.3,4.4,12.1c0.3,6.5-3.9,11.8-10.7,11.8
		c-6.6,0-10-4.2-10.1-7.9c-0.1-4.6,3.3-7.6,7.4-7.6s5.9,2.6,6,4.8c0.1,2.2-1.1,4.1-3.6,3.6l-0.5,2.3c2.4,0.8,6.3-0.6,7.2-4.9
		c1.1-5.6-2.8-9.5-8.2-9.8c-5.7-0.4-12.1,3.3-12.4,11c-0.3,8.8,6.7,13.3,13.9,13.3c9.7,0,17-7.3,18.2-15.4c1-6.7-1.5-14.2-3.5-21.1
		L38.6,58z"/>


   <defs>
        <linearGradient id="gradient" x1="100%" y1="100%">
          <stop offset="0%" stop-color="#82D5BA" stop-opacity=".5">
          </stop>
          <stop offset="100%" stop-color="#52B3F7" stop-opacity=".5">
          </stop>
        </linearGradient>
      </defs>
</svg>