<svg version="1.1" xmlns="http://www.w3.org/2000/svg" xmlns:xlink="http://www.w3.org/1999/xlink" x="0px" y="0px" width="299px" height="289px" viewBox="0 0 299 289" enable-background="new 0 0 299 289" xml:space="preserve">
	<symbol id="brand-icon" viewBox="0 0 140 70">
    <path fill-rule="evenodd" clip-rule="evenodd" d="M134.1,37.9c-0.1-1.5-0.6-2.9-1.5-4.1c-1.6-2-3.7-3-6.3-2.7
  c-1.8,0.2-3.4,1-4.6,2.4c-1.9,2.3-2.4,4.8-1.3,7.6c1.5,3.5,5.5,5.3,9.1,3.9c2.5-1,3.9-2.8,4.5-5.4c0.1-0.4,0.1-0.8,0.2-1.2v-0.2
  C134.2,38,134.1,38,134.1,37.9 M127,43.3c-2.8,0-5-2.3-4.9-5.1c0-2.8,2.3-5.1,5-5c2.7,0.1,4.9,2.3,4.9,5.1
  C131.9,41.1,129.7,43.3,127,43.3 M75.9,25.7c0,0.1,0,0.1,0,0.2v18.8c0,0.5-0.1,0.5-0.5,0.5h-1c-0.6,0-0.6,0-0.6-0.6v-7.5v-0.3H62.9
  v0.3c0,2.5,0,5.1,0,7.6c0,0.5-0.1,0.5-0.5,0.5c-0.4,0-0.9,0-1.3,0c-0.3,0-0.4-0.1-0.4-0.4c0-0.1,0-0.1,0-0.2V25.9c0-0.1,0-0.2,0-0.3
  c0-0.2,0.1-0.3,0.3-0.3c0.5,0,1,0,1.6,0c0.2,0,0.3,0.1,0.3,0.3c0,0.1,0,0.2,0,0.2v8.3v0.3h10.8v-0.3c0-2.8,0-5.6,0-8.4
  c0-0.4,0.1-0.5,0.5-0.5c0.5,0,0.9,0,1.3,0C75.8,25.3,75.9,25.5,75.9,25.7 M97.8,31.8c-2.6-1.2-5-0.9-7.4,0.6c-0.3,0.2-0.6,0.5-1,0.8
  c-0.1-0.6-0.2-1.1-0.3-1.6c0-0.2-0.1-0.3-0.4-0.3c-0.3,0-0.6,0-0.9,0c-0.7,0-0.7,0-0.7,0.6v8.3c0,3.5,0,7,0,10.6
  c0,0.4,0.1,0.5,0.5,0.5c0.4,0,0.8,0,1.1,0c0.4,0,0.6-0.2,0.6-0.6c0-2.3,0-4.6,0-7v-0.4c0.1,0.1,0.2,0.2,0.3,0.2
  c0.9,0.8,1.9,1.4,3.1,1.7c1.1,0.2,2.1,0.2,3.2,0.1c2-0.3,3.6-1.4,4.5-3.2c1.1-2.2,1.2-4.4,0.4-6.7C100.4,33.7,99.3,32.5,97.8,31.8
   M99.2,38.8c-0.1,0.8-0.2,1.6-0.6,2.3c-0.5,1-1.4,1.7-2.5,2c-1.5,0.4-3,0.4-4.3-0.4c-1.3-0.8-2.1-1.9-2.3-3.4
  c-0.2-1.2-0.1-2.3,0.4-3.4c0.7-1.4,1.9-2.2,3.5-2.5c0.1,0,0.3,0,0.4-0.1c0.2,0,0.4,0,0.5,0c1.6,0,3,0.6,4,2
  C99.1,36.3,99.3,37.5,99.2,38.8 M116.3,32.9c-1.2-1.2-2.7-1.8-4.5-1.9c-1.9-0.1-3.6,0.5-5.1,1.8c-0.1,0.1-0.2,0.2-0.4,0.4
  c-0.1-0.6-0.2-1.1-0.3-1.6c0-0.2-0.1-0.3-0.4-0.3c-0.4,0-0.8,0-1.2,0c-0.2,0-0.3,0.1-0.3,0.4c0,0.1,0,0.1,0,0.2v18.8
  c0,0.1,0,0.1,0,0.2c0,0.3,0.1,0.4,0.4,0.4c0.4,0,0.8,0,1.2,0c0.5,0,0.6-0.1,0.6-0.6c0-2.3,0-4.6,0-6.9v-0.4c0.1,0.1,0.2,0.1,0.2,0.2
  c2,1.8,4.4,2.3,7,1.7c2.1-0.5,3.5-1.8,4.2-3.8c0.6-1.5,0.7-3,0.5-4.6C118,35.3,117.4,34,116.3,32.9 M116.1,38.8
  c-0.1,0.8-0.2,1.6-0.6,2.3c-0.5,1-1.4,1.7-2.5,2c-1.5,0.4-3,0.4-4.3-0.4c-1.3-0.8-2.1-1.9-2.3-3.4c-0.2-1.2-0.1-2.3,0.4-3.4
  c0.7-1.4,1.9-2.2,3.5-2.5c0.1,0,0.3,0,0.4-0.1c0.2,0,0.4,0,0.6,0c1.8,0,3.3,0.7,4.2,2.3C116.1,36.6,116.2,37.6,116.1,38.8
   M83.4,31.7c0,2.2,0,4.3,0,6.5c0,2.2,0,4.3,0,6.5c0,0.5-0.1,0.5-0.5,0.5c-0.4,0-0.8,0-1.2,0c-0.4,0-0.4-0.1-0.4-0.4
  c0-2.3,0-4.6,0-6.9c0-2.1,0-4.1,0-6.2c0-0.5,0-0.5,0.5-0.5c0.4,0,0.8,0,1.2,0C83.3,31.2,83.4,31.3,83.4,31.7 M83.8,28.1
  c0,0.8-0.7,1.5-1.6,1.5c-0.8,0-1.5-0.7-1.5-1.5c0-0.8,0.7-1.6,1.5-1.6C83.1,26.6,83.8,27.3,83.8,28.1 M5,35.6
  C5,23.1,15.1,13,27.6,13C40,13,50.2,23.1,50.2,35.6c0,9.7-6.1,17.9-14.6,21.1l0-0.2c0,0,0,0,0,0c-0.4-2.8-0.1-4.8,1-6l1.1,1.3
  c0,0.1,0.1,0.1,0.2,0.1c0.1,0,0.1,0,0.2-0.1c0.8-0.8,1.5-2.6,1.3-4.9c-0.1-1.5-0.6-2.7-1.3-3.3c-0.1-0.1-0.3-0.1-0.3,0l-1.3,1.5
  c-1.4-1.7-0.8-2.9,0-4.4c0.2-0.4,0.4-0.8,0.6-1.2c1.7-3.8,3-8.3-0.3-12.7c-2.2-3-5.1-4.5-8.7-4.5c-1.1,0-2.2,0.1-3.3,0.4
  c-0.1-0.7-0.5-2.4-1.6-2.4c-0.2,0-0.5,0.1-0.7,0.3c-0.6,0.4-0.8,2.6-0.9,3.3c-0.4,0.4-2.6,2.9-3.4,4.1c-0.2,0.3-0.4,0.8-0.4,1.2
  c0,0.3,0,0.7,0,1.1c0,0.7,0,1.5-0.1,1.8c-0.1,0.4-1.2,1.4-2.6,2.3c-0.3,0.2-0.7,0.7-0.6,1c0.1,1.8,1.8,2.8,3.3,2.8
  c0.5,0,0.9-0.1,1.2-0.3c0.7-0.4,1-1,1.1-1.9l1.3-1.4c0.3,0,0.9,0.1,1.7,0.1c1.5,0,2.6-0.2,3.3-0.6c1.2-0.7,1.8-1.5,2.4-2.8l0.2,0.2
  c-0.4,2.7-2,5.1-3.8,7.5c-2.1,2.9-4.3,6-4.1,9.8c0.2,3.7,2,6.5,4.3,9.1C13.7,56.7,5,47.2,5,35.6"/> 
  </symbol>

  <symbol id="hippo-icon" viewBox="0 0 50 101">
		<path d="M38.6,58C38.6,58,38.6,58,38.6,58c-0.7-4.3-0.2-7.5,1.5-9.3l1.6,2c0.1,0.1,0.2,0.1,0.3,0.1c0.1,0,0.2,0,0.3-0.1
  c1.2-1.3,2.3-3.9,2.1-7.6c-0.2-2.3-0.9-4.2-2-5.2c-0.2-0.1-0.4-0.1-0.5,0l-2,2.3c-2.2-2.6-1.2-4.4-0.1-6.7c0.3-0.6,0.6-1.2,0.9-1.9
  c2.6-5.9,4.6-12.8-0.4-19.6c-3.4-4.6-7.9-6.9-13.4-6.9c-1.6,0-3.4,0.2-5.1,0.6c-0.2-1.1-0.8-3.8-2.5-3.8c-0.4,0-0.8,0.1-1.1,0.4
  c-0.9,0.7-1.3,4-1.3,5.1c-0.6,0.7-4,4.4-5.3,6.3c-0.3,0.5-0.6,1.3-0.6,1.8c0,0.5,0,1.1,0,1.6c0,1.1,0,2.3-0.2,2.8
  c-0.2,0.7-1.8,2.1-4.1,3.6c-0.5,0.3-1,1-1,1.5c0.1,2.8,2.7,4.4,5.1,4.4c0.7,0,1.4-0.2,1.8-0.4c1.1-0.7,1.6-1.6,1.7-2.9l2-2.2
  c0.4,0,1.4,0.1,2.7,0.1c2.3,0,4.1-0.3,5.1-0.9c1.9-1,2.8-2.3,3.6-4.3l0.3,0.2c-0.6,4.2-3.1,7.8-5.9,11.6c-3.2,4.5-6.6,9.2-6.3,15.1
  c0.3,7.2,4.7,12.2,9.2,16.9l0.1,0c2.2,2.3,4.4,4.6,6.1,6.9c3.7,5.2,4.3,9.3,4.4,12.1c0.3,6.5-3.9,11.8-10.7,11.8
  c-6.6,0-10-4.2-10.1-7.9c-0.1-4.6,3.3-7.6,7.4-7.6s5.9,2.6,6,4.8c0.1,2.2-1.1,4.1-3.6,3.6l-0.5,2.3c2.4,0.8,6.3-0.6,7.2-4.9
  c1.1-5.6-2.8-9.5-8.2-9.8c-5.7-0.4-12.1,3.3-12.4,11c-0.3,8.8,6.7,13.3,13.9,13.3c9.7,0,17-7.3,18.2-15.4c1-6.7-1.5-14.2-3.5-21.1
  L38.6,58z"/>
	</symbol>

  <symbol id="play-icon" viewBox="0 0 1280 600">
    <path d="M551,600c-167.6,0-304-136.4-304-304c0-167.6,136.4-304,304-304c167.6,0,304,136.4,304,304C855,463.6,718.6,600,551,600z
     M551,11.8c-156.7,0-284.2,127.5-284.2,284.2S394.3,580.2,551,580.2S835.2,452.7,835.2,296S707.7,11.8,551,11.8z M491.6,381.8
    c-5.9,0-12.3-4.6-12.3-13.1v-140c0-4.7,2.2-8.9,5.8-11.1c1.9-1.3,4.2-2,6.6-2c2,0,4,0.5,5.9,1.4l140.7,70.8
    c6.1,2.5,8.2,7.4,8.2,11.2c0,4.4-2.6,8.4-6.9,10.5l-142.1,70.8C495.8,381.2,493.7,381.8,491.6,381.8z M499.1,239.9v117.5l117-58.5
    L499.1,239.9z"/>
  </symbol>

  <symbol id="quote-bubble" viewBox="425 215 430 170">
  <path d="M530.8,382.5c-0.2,0-0.5-0.1-0.7-0.3l-19.4-17.4H438c-1.7,0-3-1.3-3-3V220.5c0-1.7,1.3-3,3-3h404c1.7,0,3,1.3,3,3v141.3
  c0,1.7-1.3,3-3,3H532.1l-0.3,16.7c0,0.4-0.2,0.7-0.6,0.9C531.1,382.5,531,382.5,530.8,382.5z M438,219.5c-0.6,0-1,0.4-1,1v141.3
  c0,0.6,0.4,1,1,1h73.1c0.2,0,0.5,0.1,0.7,0.3l18,16.2l0.3-15.5c0-0.5,0.5-1,1-1H842c0.6,0,1-0.4,1-1V220.5c0-0.6-0.4-1-1-1H438z"/>
  </symbol>
</svg>