<svg xmlns="http://www.w3.org/2000/svg" viewBox="420 215 440 170">

  <path fill="url(#gradient)" d="M530.8,382.5c-0.2,0-0.5-0.1-0.7-0.3l-19.4-17.4H438c-1.7,0-3-1.3-3-3V220.5c0-1.7,1.3-3,3-3h404c1.7,0,3,1.3,3,3v141.3
    c0,1.7-1.3,3-3,3H532.1l-0.3,16.7c0,0.4-0.2,0.7-0.6,0.9C531.1,382.5,531,382.5,530.8,382.5z M438,219.5c-0.6,0-1,0.4-1,1v141.3
    c0,0.6,0.4,1,1,1h73.1c0.2,0,0.5,0.1,0.7,0.3l18,16.2l0.3-15.5c0-0.5,0.5-1,1-1H842c0.6,0,1-0.4,1-1V220.5c0-0.6-0.4-1-1-1H438z"/>
    
   <defs>
        <linearGradient id="gradient" x1="100%" y1="100%">
          <stop offset="0%" stop-color="#82D5BA" stop-opacity=".5">
          </stop>
          <stop offset="100%" stop-color="#52B3F7" stop-opacity=".5">
          </stop>
        </linearGradient>
      </defs>
</svg>

